<?xml version="1.0" encoding="UTF-8"?>
<svg id="Camada_1" xmlns="http://www.w3.org/2000/svg" version="1.1" xmlns:xlink="http://www.w3.org/1999/xlink" viewBox="0 0 1109.65 115.5">
  <!-- Generator: Adobe Illustrator 29.7.1, SVG Export Plug-In . SVG Version: 2.1.1 Build 8)  -->
  <defs>
    <style>
      .st0 {
        fill: url(#Gradiente_sem_nome_5);
      }

      .st1 {
        fill: url(#Gradiente_sem_nome_2);
      }

      .st2, .st3 {
        fill: #fff;
      }

      .st3 {
        fill-rule: evenodd;
      }

      .st4 {
        fill: url(#Gradiente_sem_nome);
      }

      .st5 {
        fill: url(#Gradiente_sem_nome_71);
      }

      .st6 {
        fill: url(#Gradiente_sem_nome_7);
      }

      .st7 {
        fill: url(#Gradiente_sem_nome_4);
      }

      .st8 {
        fill: url(#Gradiente_sem_nome_6);
      }

      .st9 {
        fill: url(#Gradiente_sem_nome_3);
      }
    </style>
    <symbol id="MPAC-H" viewBox="0 0 235.99 63.96">
      <g>
        <path class="st2" d="M8.94.26v11.86L5.89.26h-1.36L1.61,12.12V.26H.25v12.58h2.35L5.23,2.11l2.76,10.73h2.32V.26h-1.37ZM12.42,12.85h1.35v-1.71h-1.35v1.71ZM12.42,9.67h1.35V.27h-1.35s0,9.4,0,9.4ZM15.75.26v9.4h1.23v-1.17c.23.46.54.8.93,1.03s.86.34,1.42.34c.82,0,1.41-.21,1.76-.63.35-.42.53-1.14.53-2.16V.26h-1.32v6.91c0,.51-.11.89-.32,1.14-.22.25-.55.38-.99.38-.59,0-1.05-.18-1.39-.56-.34-.37-.52-.87-.52-1.5V.26h-1.33ZM23.56,12.85h1.35v-1.71h-1.35v1.71ZM23.56,9.67h1.35V.27h-1.35s0,9.4,0,9.4ZM26.64,3.09h1.3v-.05c-.02-.12-.03-.21-.03-.27,0-.51.14-.9.44-1.17.29-.27.71-.4,1.26-.4.5,0,.9.14,1.19.41s.44.64.44,1.11c0,.74-.57,1.31-1.7,1.7h-.03c-1.14.4-1.87.8-2.21,1.19-.34.39-.51.96-.51,1.71,0,.82.24,1.46.72,1.92s1.15.69,2,.69c.91,0,1.6-.22,2.06-.66.46-.44.69-1.09.69-1.95v-.13h-1.24c-.03.57-.16.98-.38,1.24-.23.26-.58.39-1.06.39-.51,0-.89-.12-1.15-.36s-.39-.61-.39-1.08c0-.21.03-.4.1-.57s.17-.3.3-.41c.24-.21.71-.43,1.42-.65.38-.12.67-.22.88-.3.64-.25,1.1-.57,1.38-.95.27-.38.41-.89.41-1.53,0-.94-.27-1.67-.81-2.18-.54-.51-1.31-.77-2.31-.77-.91,0-1.61.24-2.08.73-.47.49-.7,1.21-.7,2.16v.19h.01ZM35.78,2.21c0-.39.07-.65.21-.77s.48-.18,1.01-.18h.17s.08,0,.12,0V.12c-.07,0-.18,0-.32-.02-.34-.02-.55-.03-.64-.03-.62,0-1.08.12-1.38.37s-.45.62-.45,1.12v7.01h-1.3v1.09h1.3v2.51h1.28v-2.51h1.52v-1.09h-1.52V2.2h0ZM39.46,5.98h3.18v.25c0,.86-.12,1.52-.38,1.96-.25.44-.63.66-1.13.66-.56,0-.98-.23-1.26-.71-.28-.47-.41-1.19-.41-2.16M42.66,3.44h1.28c0-1.11-.26-1.96-.76-2.55-.49-.59-1.2-.88-2.12-.88-1.01,0-1.75.4-2.23,1.19-.48.79-.72,2.01-.72,3.67,0,1.75.24,3.04.72,3.85.48.81,1.23,1.22,2.26,1.22.97,0,1.69-.35,2.17-1.04.48-.69.71-1.75.71-3.16v-.51c0-.11,0-.22,0-.31h-4.5v-.42c0-1.18.14-2.04.41-2.57.27-.54.7-.81,1.29-.81.46,0,.82.2,1.09.61s.4.96.4,1.66v.06h0ZM40.28,10.67l1.38,2.22h1.45l-2.01-2.22h-.82ZM45.71.26v9.4h1.21v-1.54c.19.55.47.98.86,1.29.38.31.82.47,1.31.47h.34c.08,0,.16,0,.22-.03v-1.41c-.07.04-.15.07-.23.09-.09.02-.18.03-.28.03-.67,0-1.19-.22-1.57-.67-.37-.45-.56-1.07-.56-1.87V.26s-1.3,0-1.3,0ZM50.54,12.85h1.35v-1.71h-1.35v1.71ZM50.54,9.67h1.35V.27h-1.35s0,9.4,0,9.4ZM53.6,4.96c0,1.69.27,2.94.81,3.75s1.37,1.22,2.48,1.22,1.96-.4,2.49-1.21c.54-.81.8-2.06.8-3.76s-.27-2.96-.8-3.76S58.02,0,56.89,0s-1.97.4-2.5,1.19c-.52.79-.79,2.05-.79,3.76M55,4.96c0-1.41.14-2.4.43-2.97s.77-.86,1.45-.86,1.15.29,1.44.88c.29.59.44,1.57.44,2.95s-.14,2.38-.44,2.96c-.29.57-.77.86-1.44.86s-1.16-.28-1.45-.85-.44-1.56-.44-2.96M67.56,6.83h1.84c.85,0,1.47.2,1.87.61s.6,1.05.6,1.92c0,.8-.2,1.38-.6,1.74s-1.05.54-1.95.54h-1.75v-4.8h-.01ZM66.17.26v12.58h3.21c1.37,0,2.36-.28,2.99-.84s.94-1.45.94-2.67-.33-2.19-.98-2.82c-.66-.64-1.62-.96-2.89-.96h-1.87V.26s-1.4,0-1.4,0ZM79.42.26v1.22c-.18-.47-.48-.84-.88-1.09-.4-.26-.89-.38-1.45-.38-.78,0-1.35.19-1.71.58-.36.39-.54,1-.54,1.85v7.23h1.37V2.41c0-.39.1-.69.29-.9.19-.21.46-.32.81-.32.63,0,1.12.19,1.47.59.35.39.53.94.53,1.65v6.24h1.33V.27h-1.22ZM76.76,10.67l1.38,2.22h1.45l-2.01-2.22s-.82,0-.82,0ZM83.93,5.04c0-1.36.14-2.33.43-2.91.29-.58.75-.87,1.41-.87.61,0,1.05.3,1.32.91.27.6.41,1.59.41,2.97,0,1.23-.14,2.13-.44,2.71-.29.58-.74.87-1.34.87-.64,0-1.1-.27-1.38-.82-.27-.54-.41-1.5-.41-2.86M82.72.26v12.58h1.3v-4.15c.11.35.36.64.73.86s.81.33,1.3.33c.91,0,1.62-.4,2.12-1.21.5-.81.76-1.94.76-3.41,0-1.69-.25-2.98-.75-3.86s-1.23-1.32-2.2-1.32c-.5,0-.93.12-1.31.38-.37.25-.62.58-.74,1V.27h-1.21ZM90.66,12.85h1.3V.27h-1.3s0,12.58,0,12.58ZM93.92,12.85h1.35v-1.71h-1.35v1.71ZM93.92,9.67h1.35V.27h-1.35s0,9.4,0,9.4ZM101.78,3.57h1.28c0-1.13-.26-2.01-.78-2.63-.52-.62-1.25-.93-2.2-.93-1.04,0-1.81.41-2.31,1.23s-.75,2.09-.75,3.79.26,2.86.78,3.67c.52.81,1.31,1.21,2.37,1.21.87,0,1.56-.27,2.07-.81.51-.53.76-1.27.76-2.19v-.2h-1.28c-.03.66-.17,1.16-.42,1.5-.26.34-.62.52-1.08.52-.64,0-1.1-.28-1.37-.85-.27-.57-.41-1.54-.41-2.91s.14-2.36.41-2.94c.28-.57.74-.86,1.38-.86.49,0,.87.2,1.13.61.26.41.41,1,.42,1.77M104.65,4.96c0,1.69.27,2.94.81,3.75s1.37,1.22,2.48,1.22,1.96-.4,2.49-1.21c.54-.81.8-2.06.8-3.76s-.27-2.96-.8-3.76C109.9.4,109.07,0,107.94,0s-1.97.4-2.5,1.19c-.53.79-.79,2.05-.79,3.76M106.04,4.96c0-1.41.14-2.4.43-2.97s.77-.86,1.45-.86,1.15.29,1.44.88.44,1.57.44,2.95-.14,2.38-.44,2.96c-.29.57-.77.86-1.44.86s-1.16-.28-1.45-.85c-.29-.57-.44-1.56-.44-2.96M121.83,5.04c0,1.37-.13,2.33-.4,2.87-.27.54-.72.81-1.37.81s-1.07-.29-1.36-.87c-.29-.58-.44-1.48-.44-2.7,0-1.36.14-2.35.42-2.96s.72-.92,1.33-.92c.65,0,1.11.29,1.4.86.28.58.42,1.55.42,2.92M123.06.26h-1.23v1.19c-.12-.41-.36-.74-.73-1-.37-.25-.8-.38-1.3-.38-.97,0-1.7.44-2.21,1.33-.51.88-.76,2.17-.76,3.86,0,1.46.26,2.6.76,3.41.51.81,1.22,1.21,2.13,1.21.49,0,.93-.11,1.3-.33s.61-.51.71-.86v4.15h1.32V.26h.01ZM124.78,5.14c0,1.75.28,3.05.84,3.89s1.42,1.27,2.57,1.27,2.03-.42,2.58-1.25c.55-.84.83-2.14.83-3.9s-.28-3.07-.83-3.89c-.55-.83-1.41-1.24-2.59-1.24s-2.04.41-2.59,1.23c-.54.82-.82,2.12-.82,3.9M126.23,5.13c0-1.46.15-2.48.45-3.08.3-.6.8-.89,1.51-.89s1.2.3,1.5.91.45,1.63.45,3.06-.15,2.47-.45,3.07-.8.89-1.5.89-1.2-.29-1.5-.88-.45-1.62-.45-3.07M137.81.26v13.05h6.44v-1.36h-5.01v-4.19h4.68v-1.32h-4.68V1.64h5.06V.27h-6.49ZM145.89,3.2h1.35v-.05c-.02-.12-.03-.22-.03-.28,0-.53.15-.94.45-1.21.3-.28.74-.42,1.31-.42.52,0,.93.14,1.23.43.3.28.45.66.45,1.15,0,.77-.59,1.36-1.76,1.76h-.03c-1.18.42-1.94.83-2.29,1.24-.35.41-.52,1-.52,1.77,0,.85.25,1.52.74,1.99.5.48,1.19.71,2.08.71.94,0,1.65-.23,2.13-.68.48-.46.72-1.13.72-2.02v-.14h-1.29c-.03.59-.16,1.02-.4,1.28-.24.27-.6.4-1.1.4-.53,0-.93-.12-1.19-.38-.27-.25-.4-.63-.4-1.12,0-.22.04-.42.11-.59.07-.17.17-.32.31-.42.25-.21.74-.44,1.47-.68.39-.12.7-.23.91-.31.67-.26,1.14-.59,1.43-.99.28-.4.43-.92.43-1.58,0-.98-.28-1.73-.84-2.26s-1.35-.79-2.39-.79c-.95,0-1.66.25-2.15.76-.49.51-.73,1.25-.73,2.24v.2h0ZM155.36,2.28c0-.41.07-.67.22-.8s.49-.19,1.05-.19h.18c.05,0,.09,0,.12,0V.11c-.08,0-.19,0-.33-.02-.35-.02-.57-.03-.67-.03-.64,0-1.12.13-1.43.38-.31.26-.47.65-.47,1.16v7.27h-1.35v1.13h1.35v2.6h1.32v-2.6h1.58v-1.13h-1.58V2.27h0ZM162.22,5.52c-.21-.24-.68-.49-1.42-.75-.06-.02-.11-.04-.14-.05-.63-.22-1.04-.47-1.23-.75s-.29-.68-.29-1.23c0-.49.11-.86.32-1.13s.52-.4.9-.4c.56,0,1.01.21,1.34.64s.5,1,.5,1.73v1.93h.02ZM164.36.25c-.17-.03-.32-.05-.44-.06-.13,0-.24-.02-.35-.02-.38,0-.68.12-.9.36s-.34.59-.35,1.03c-.21-.5-.51-.88-.9-1.14-.39-.27-.86-.4-1.4-.4-.7,0-1.25.24-1.64.71-.39.47-.59,1.14-.59,2s.18,1.48.54,1.92,1.14.86,2.35,1.27h.03c.99.34,1.48.73,1.48,1.18v.9c0,.4-.11.69-.34.88-.23.18-.59.28-1.09.28s-.84-.13-1.08-.38-.35-.64-.35-1.17v-.17h-1.27c.02.99.25,1.72.71,2.18s1.17.68,2.16.68c.92,0,1.59-.21,2.02-.63.42-.42.64-1.09.64-2V1.97c0-.25.05-.44.14-.55s.24-.16.44-.16c.04,0,.1,0,.18.03h.03V.25h-.02ZM170.66,5.21c0,1.42-.14,2.41-.42,2.97s-.75.84-1.42.84-1.1-.3-1.41-.91c-.3-.6-.46-1.54-.46-2.8,0-1.41.14-2.43.43-3.07.29-.63.75-.95,1.38-.95.67,0,1.15.3,1.45.9.29.6.44,1.61.44,3.02M171.93.26h-1.27v1.23c-.12-.43-.38-.77-.76-1.03-.38-.26-.83-.39-1.35-.39-1,0-1.76.46-2.29,1.38-.53.92-.79,2.25-.79,4,0,1.52.26,2.7.79,3.54s1.27,1.26,2.21,1.26c.51,0,.96-.12,1.35-.35s.64-.53.74-.89v4.31h1.37V.27h0ZM173.69,5.14c0,1.75.28,3.05.84,3.89s1.42,1.27,2.57,1.27,2.03-.42,2.58-1.25c.56-.84.83-2.14.83-3.9s-.28-3.07-.82-3.89c-.55-.83-1.41-1.24-2.59-1.24s-2.04.41-2.59,1.23c-.54.82-.82,2.12-.82,3.9M175.14,5.13c0-1.46.15-2.48.45-3.08s.8-.89,1.51-.89,1.2.3,1.5.91.45,1.63.45,3.06-.15,2.47-.45,3.07-.8.89-1.5.89-1.2-.29-1.5-.88-.45-1.62-.45-3.07M191.51,5.21c0,1.42-.14,2.41-.42,2.97s-.75.84-1.42.84-1.1-.3-1.41-.91c-.3-.6-.45-1.54-.45-2.8,0-1.41.14-2.43.43-3.07.29-.63.75-.95,1.38-.95.67,0,1.15.3,1.45.9.29.6.44,1.61.44,3.02M192.78.26h-1.27v1.23c-.12-.43-.38-.77-.76-1.03-.38-.26-.83-.39-1.35-.39-1,0-1.76.46-2.29,1.38-.53.92-.79,2.25-.79,4,0,1.52.26,2.7.79,3.54s1.27,1.26,2.21,1.26c.51,0,.96-.12,1.35-.35s.64-.53.74-.89v4.31h1.37V.27h0ZM194.54,5.14c0,1.75.28,3.05.84,3.89s1.42,1.27,2.57,1.27,2.03-.42,2.58-1.25c.56-.84.83-2.14.83-3.9s-.28-3.07-.83-3.89c-.55-.83-1.41-1.24-2.59-1.24s-2.04.41-2.59,1.23c-.54.82-.82,2.12-.82,3.9M195.99,5.13c0-1.46.15-2.48.45-3.08s.8-.89,1.51-.89,1.2.3,1.5.91.45,1.63.45,3.06-.15,2.47-.45,3.07-.8.89-1.5.89-1.2-.29-1.5-.88-.45-1.62-.45-3.07M209.42,5.35h3.46l-1.73,6.83-1.73-6.83h0ZM206.68.26l3.54,13.05h1.85l3.59-13.05h-1.47l-.98,3.76h-4.11l-.94-3.76h-1.48ZM221.64,3.7h1.33c0-1.17-.27-2.08-.81-2.73-.54-.64-1.3-.97-2.28-.97-1.08,0-1.88.43-2.4,1.28-.52.85-.78,2.16-.78,3.93s.27,2.97.81,3.81,1.36,1.26,2.45,1.26c.91,0,1.62-.28,2.15-.84s.79-1.31.79-2.28v-.2h-1.32c-.03.68-.18,1.2-.44,1.56-.26.36-.64.53-1.12.53-.66,0-1.14-.3-1.42-.88-.29-.59-.43-1.59-.43-3.01s.14-2.45.43-3.04c.29-.6.76-.89,1.43-.89.51,0,.9.21,1.17.64.27.42.42,1.03.44,1.84M224.88.26v9.75h1.26v-1.59c.2.57.49,1.02.89,1.34.39.32.85.48,1.36.48h.35c.08,0,.16,0,.23-.03v-1.46c-.07.04-.15.07-.24.09-.09.02-.18.03-.29.03-.7,0-1.24-.23-1.62-.69-.39-.46-.58-1.11-.58-1.94V.27h-1.36ZM231.03,6.19h3.3v.26c0,.9-.13,1.57-.39,2.03-.26.45-.65.68-1.18.68-.58,0-1.02-.24-1.3-.73-.28-.49-.43-1.24-.43-2.24M234.34,3.56h1.33c0-1.15-.27-2.03-.79-2.64C234.37.31,233.63,0,232.68,0c-1.04,0-1.82.41-2.31,1.23-.5.82-.75,2.09-.75,3.8,0,1.82.25,3.15.75,4,.5.84,1.28,1.27,2.35,1.27,1.01,0,1.75-.36,2.25-1.07s.74-1.81.74-3.28v-.53c0-.12,0-.23,0-.32h-4.66v-.44c0-1.22.14-2.11.42-2.67s.73-.84,1.34-.84c.48,0,.85.21,1.13.63.28.42.42.99.42,1.72v.07h-.01Z"/>
        <path class="st3" d="M53.35,50.04v-15.29c1.17-.91,2.27-1.9,3.32-2.95,1.28-1.29,2.47-2.67,3.55-4.15.64-.88,1.25-1.79,1.82-2.73v34.91l-.14-.25c-.61-1.05-1.35-2.03-2.16-3.09-.48-.63-.97-1.23-1.47-1.8-.5-.57-1.03-1.14-1.59-1.7h0c-1.04-1.05-2.15-2.03-3.32-2.95"/>
        <path class="st3" d="M0,61.07c.64-1.16,1.34-2.28,2.09-3.35,1.19-1.69,2.52-3.28,3.97-4.73.83-.84,1.71-1.64,2.62-2.39v-16.41c-.91-.75-1.79-1.55-2.62-2.39l-.03-.03c-1.44-1.45-2.76-3.02-3.94-4.7-.75-1.08-1.45-2.2-2.09-3.35v37.35Z"/>
        <path class="st2" d="M79.37,21.39v41.56h14.58l5.44-20.23c.49-1.79.93-3.53,1.32-5.21.39-1.69.74-3.32,1.03-4.92.35,1.7.76,3.47,1.21,5.32.45,1.86.97,3.84,1.54,5.97l5.14,19.07h14.55V21.39h-9.66v18.43c0,1.3.03,3.12.1,5.46s.16,5.05.3,8.11l-7.95-32h-10.5l-7.77,32c.13-3.69.23-7,.31-9.95.08-2.94.11-5.24.11-6.9v-15.15h-9.75Z"/>
        <path class="st2" d="M139.16,44.61h7.03c1.91,0,3.32.4,4.23,1.22.91.82,1.36,2.09,1.36,3.8s-.47,2.9-1.42,3.72-2.38,1.22-4.28,1.22h-6.91v-9.96h0ZM128.53,21.39v41.56h18.93c4.79,0,8.44-1.12,10.95-3.34,2.51-2.23,3.77-5.45,3.77-9.66,0-4.42-1.24-7.81-3.71-10.17-2.47-2.36-6.03-3.54-10.67-3.54h-8.63v-14.84h-10.64,0Z"/>
        <path class="st2" d="M173.33,37.62h9.05l-4.61,14.33-4.44-14.33ZM172.35,62.95h11.57l14.6-41.56h-11.37l-2.53,7.62h-13.81l-2.37-7.62h-10.97l14.88,41.56Z"/>
        <path class="st2" d="M235.88,35.95c-.71-4.99-2.67-8.85-5.86-11.6s-7.31-4.12-12.36-4.12c-6.05,0-10.93,1.98-14.63,5.95-3.71,3.97-5.56,9.19-5.56,15.66s1.89,12.11,5.65,16.11c3.78,4.01,8.83,6.01,15.15,6.01,5.01,0,9.12-1.33,12.29-3.98,3.17-2.65,4.98-6.27,5.43-10.87h-9.94c-.49,1.99-1.41,3.5-2.77,4.5-1.35,1.01-3.13,1.51-5.35,1.51-2.95,0-5.3-1.17-7.02-3.52s-2.59-5.57-2.59-9.65.81-7.22,2.44-9.47c1.63-2.24,3.92-3.37,6.88-3.37,2.38,0,4.28.59,5.71,1.75,1.44,1.17,2.33,2.86,2.68,5.08h9.85Z"/>
        <rect class="st2" x="27.01" y="21.78" width="7.82" height="7.86"/>
        <path class="st2" d="M57.41,55.7c.5.58.98,1.16,1.43,1.74.78,1.02,1.5,1.97,2.08,2.97.46.8.84,1.64,1.11,2.6h-7.83c-.46-.67-.95-1.32-1.46-1.95-.59-.72-1.2-1.39-1.83-2.03-2.57-2.58-5.65-4.67-9.07-6.09-3.29-1.37-6.9-2.13-10.67-2.13s-7.39.76-10.68,2.13c-3.42,1.42-6.5,3.51-9.07,6.09h0c-.64.64-1.25,1.32-1.83,2.03-.51.63-1,1.28-1.46,1.95H0c.77-1.53,1.65-2.99,2.63-4.38,1.15-1.63,2.44-3.17,3.84-4.58,3.22-3.24,7.07-5.85,11.34-7.63,4.11-1.71,8.63-2.66,13.36-2.66s9.25.95,13.36,2.66c4.27,1.78,8.12,4.39,11.34,7.63h0c.52.52,1.04,1.08,1.54,1.65"/>
        <path class="st2" d="M57.41,30.79c.5-.49.98-.99,1.43-1.49.78-.88,1.5-1.69,2.08-2.55.46-.69.84-1.41,1.11-2.23h-7.83c-.46.58-.95,1.13-1.46,1.67-.59.61-1.2,1.2-1.83,1.74-2.57,2.22-5.65,4-9.07,5.23-3.29,1.18-6.9,1.82-10.67,1.82s-7.39-.65-10.68-1.82c-3.42-1.22-6.5-3.01-9.07-5.23h0c-.64-.55-1.25-1.13-1.83-1.74-.51-.54-1-1.1-1.46-1.67H0c.77,1.31,1.65,2.56,2.63,3.75,1.15,1.4,2.44,2.72,3.84,3.93,3.22,2.78,7.07,5.02,11.34,6.54,4.11,1.47,8.63,2.28,13.36,2.28s9.25-.81,13.36-2.28c4.27-1.53,8.12-3.76,11.34-6.54h0c.52-.45,1.04-.92,1.54-1.42"/>
      </g>
    </symbol>
    <linearGradient id="Gradiente_sem_nome" data-name="Gradiente sem nome" x1="726.67" y1="72.56" x2="748.56" y2="72.56" gradientTransform="translate(0 118) scale(1 -1)" gradientUnits="userSpaceOnUse">
      <stop offset="0" stop-color="#e1e040"/>
      <stop offset="1" stop-color="#9fc52c"/>
    </linearGradient>
    <linearGradient id="Gradiente_sem_nome_2" data-name="Gradiente sem nome 2" x1="722.8" y1="63.45" x2="744.67" y2="63.45" gradientTransform="translate(0 118) scale(1 -1)" gradientUnits="userSpaceOnUse">
      <stop offset="0" stop-color="#e1e040"/>
      <stop offset="1" stop-color="#9fc52c"/>
    </linearGradient>
    <linearGradient id="Gradiente_sem_nome_3" data-name="Gradiente sem nome 3" x1="733.24" y1="80.08" x2="753.57" y2="80.08" gradientTransform="translate(0 118) scale(1 -1)" gradientUnits="userSpaceOnUse">
      <stop offset="0" stop-color="#e1e040"/>
      <stop offset="1" stop-color="#9fc52c"/>
    </linearGradient>
    <linearGradient id="Gradiente_sem_nome_4" data-name="Gradiente sem nome 4" x1="998.69" y1="79.61" x2="1073.12" y2="41.65" gradientTransform="translate(0 118) scale(1 -1)" gradientUnits="userSpaceOnUse">
      <stop offset="0" stop-color="#e1e040"/>
      <stop offset="1" stop-color="#9fc52c"/>
    </linearGradient>
    <linearGradient id="Gradiente_sem_nome_5" data-name="Gradiente sem nome 5" x1="1005.11" y1="92.2" x2="1079.54" y2="54.24" gradientTransform="translate(0 118) scale(1 -1)" gradientUnits="userSpaceOnUse">
      <stop offset="0" stop-color="#e1e040"/>
      <stop offset="1" stop-color="#9fc52c"/>
    </linearGradient>
    <linearGradient id="Gradiente_sem_nome_6" data-name="Gradiente sem nome 6" x1="1012.47" y1="106.64" x2="1086.91" y2="68.68" gradientTransform="translate(0 118) scale(1 -1)" gradientUnits="userSpaceOnUse">
      <stop offset="0" stop-color="#e1e040"/>
      <stop offset="1" stop-color="#9fc52c"/>
    </linearGradient>
    <linearGradient id="Gradiente_sem_nome_7" data-name="Gradiente sem nome 7" x1="336.19" y1="110.88" x2="352.62" y2="4.7" gradientTransform="translate(0 118) scale(1 -1)" gradientUnits="userSpaceOnUse">
      <stop offset="0" stop-color="#e1e040"/>
      <stop offset="1" stop-color="#9fc52c"/>
    </linearGradient>
    <linearGradient id="Gradiente_sem_nome_71" data-name="Gradiente sem nome 7" x1="657.15" y1="110.88" x2="673.58" y2="4.7" xlink:href="#Gradiente_sem_nome_7"/>
  </defs>
  <use width="235.99" height="63.96" transform="translate(14.97 95.74) scale(1.2 -1.2)" xlink:href="#MPAC-H"/>
  <g>
    <g>
      <path class="st2" d="M748.56,71.91c.06.34.02.73-.12,1.08-.15.34-.37.66-.63.93-.52.54-1.16.94-1.82,1.24-.67.3-1.37.51-2.08.65-.71.13-1.43.19-2.16.2-.72,0-1.44-.07-2.16-.2-.71-.14-1.41-.35-2.08-.65-.66-.3-1.31-.7-1.82-1.24-.26-.27-.48-.59-.63-.93-.14-.35-.19-.73-.12-1.08.06.17.09.33.18.48.06.15.17.28.27.4.22.24.45.45.73.6.54.33,1.15.57,1.77.74s1.26.3,1.91.37,1.3.11,1.95.11,1.3-.04,1.95-.11c.65-.08,1.28-.2,1.91-.37.62-.17,1.23-.41,1.77-.74.28-.16.51-.37.73-.61.21-.24.36-.54.45-.88h0Z"/>
      <path class="st2" d="M764.09,87.47l-1.78-7.46c-.39-2.9-2.52-5.17-5.28-5.82l7.24-24.93c2.37-8.15.82-17.07-4.13-23.84-4.37-5.98-10.86-9.63-17.94-10.12-.16.82-.3,1.72-.42,2.67,6.38.37,12.25,3.64,16.19,9.04,4.46,6.11,5.85,14.14,3.71,21.5l-8.43,29.05c-.93,3.2-3.67,5.35-6.82,5.35h-11.83c-3.15,0-5.89-2.15-6.82-5.35l-8.43-29.05c-2.14-7.36-.75-15.4,3.71-21.5,2.4-3.28,5.5-5.77,9.01-7.31.42-1.2.91-2.34,1.42-3.4-4.95,1.53-9.36,4.69-12.6,9.12-4.95,6.78-6.49,15.69-4.13,23.84l7.25,24.96c-2.7.68-4.77,2.93-5.16,5.79l-1.77,7.43c-2.24.44-3.93,2.41-3.93,4.77v11.65c0,.72.59,1.31,1.31,1.31s1.31-.59,1.31-1.31v-11.65c0-1.17.9-2.13,2.04-2.23,1.65.91,8.97,4.52,21.47,4.76v9.12c0,.72.59,1.31,1.31,1.31s1.31-.59,1.31-1.31v-9.12c12.44-.24,19.75-3.81,21.45-4.74,1.09.15,1.93,1.09,1.93,2.22v11.65c0,.72.59,1.31,1.31,1.31s1.31-.59,1.31-1.31v-11.65c0-2.32-1.63-4.26-3.8-4.74h-.01ZM740.58,92.13c-11.41,0-18.61-3-20.94-4.15l1.77-7.42.03-.14c.23-1.83,1.56-3.27,3.3-3.67l.46,1.57c1.26,4.36,5.04,7.29,9.4,7.29h11.83c4.36,0,8.14-2.93,9.4-7.29l.46-1.6c1.79.36,3.18,1.83,3.42,3.7l1.8,7.57c-2.33,1.15-9.52,4.15-20.93,4.15h0Z"/>
      <path class="st4" d="M730.77,21.72c-.13.22-11.72,19.11,4.65,28.61,13.73,7.97,12.07,18.62,12.04,18.82,3.9-13.01-3.19-20.21-11.15-26.29-7.92-6.05-5.56-20.98-5.54-21.14Z"/>
      <path class="st1" d="M724.23,35.49c-.1.2-6.38,16.72,8.25,23.22,12.27,5.45,11.78,14.73,11.77,14.91,2.17-11.53-4.32-17.22-11.67-21.4-8.3-4.72-8.36-16.58-8.35-16.73h0Z"/>
      <path class="st9" d="M740.89,9.83c-.19.21-16.96,18.47-.24,32.67,14.03,11.91,10.09,23.3,10.02,23.51,6.92-13.49.27-23.05-7.58-31.57-7.81-8.47-2.26-24.43-2.2-24.61Z"/>
    </g>
    <path class="st2" d="M809.84,59.78c-.69,1.49-1.66,2.73-2.9,3.74-1.24,1.01-2.72,1.78-4.44,2.31s-3.62.8-5.71.8c-2.94,0-5.82-.5-8.64-1.51-2.83-1.01-5.39-2.56-7.7-4.65l5.01-6c1.76,1.43,3.57,2.57,5.42,3.41,1.85.85,3.88,1.26,6.08,1.26,1.76,0,3.13-.32,4.1-.96s1.46-1.53,1.46-2.67v-.11c0-.55-.1-1.03-.3-1.46-.2-.42-.59-.82-1.16-1.18-.57-.37-1.36-.73-2.37-1.1s-2.33-.75-3.95-1.15c-1.95-.48-3.71-1.01-5.3-1.6-1.58-.59-2.92-1.31-4.03-2.17-1.1-.86-1.96-1.93-2.57-3.22-.61-1.28-.91-2.88-.91-4.79v-.11c0-1.76.33-3.35.98-4.76.66-1.41,1.58-2.63,2.76-3.66,1.18-1.03,2.6-1.82,4.24-2.37,1.64-.55,3.46-.83,5.44-.83,2.82,0,5.42.42,7.79,1.26,2.37.85,4.54,2.06,6.52,3.63l-4.4,6.38c-1.73-1.17-3.41-2.1-5.06-2.78s-3.3-1.02-4.95-1.02-2.89.32-3.72.96-1.24,1.44-1.24,2.39v.11c0,.62.12,1.16.36,1.62s.67.87,1.3,1.24c.63.37,1.48.72,2.57,1.05,1.08.33,2.46.72,4.11,1.15,1.95.51,3.69,1.09,5.21,1.73,1.53.64,2.81,1.41,3.86,2.31s1.84,1.95,2.37,3.16.8,2.66.8,4.35v.11c0,1.91-.35,3.61-1.04,5.09v.04Z"/>
    <path class="st2" d="M844.85,53.21c-.02.29-.05.64-.08,1.04h-20.53c.4,1.91,1.24,3.35,2.5,4.32,1.27.97,2.84,1.46,4.71,1.46,1.39,0,2.64-.24,3.74-.72s2.24-1.25,3.41-2.31l4.79,4.24c-1.39,1.72-3.08,3.07-5.06,4.05-1.98.97-4.31,1.46-6.99,1.46-2.2,0-4.25-.37-6.14-1.1-1.89-.73-3.52-1.78-4.9-3.14s-2.45-2.96-3.22-4.82c-.77-1.85-1.15-3.92-1.15-6.19v-.11c0-2.09.36-4.07,1.07-5.94.72-1.87,1.71-3.5,3-4.9s2.82-2.5,4.6-3.3c1.78-.81,3.75-1.21,5.92-1.21,2.46,0,4.59.44,6.38,1.32,1.8.88,3.29,2.06,4.49,3.55,1.19,1.48,2.07,3.19,2.64,5.12s.85,3.94.85,6.03v.11c0,.41,0,.75-.03,1.05h0ZM834.76,44.49c-1.06-1.15-2.48-1.73-4.24-1.73s-3.18.57-4.27,1.71c-1.08,1.14-1.79,2.66-2.12,4.57h12.6c-.26-1.87-.92-3.38-1.98-4.54h0Z"/>
    <path class="st2" d="M868.44,44.79c-2.79,0-4.98.85-6.58,2.53-1.6,1.69-2.39,4.31-2.39,7.87v10.9h-8.37v-29.5h8.37v5.94c.84-2.02,2-3.63,3.47-4.84s3.45-1.76,5.94-1.65v8.75h-.44,0Z"/>
    <path class="st2" d="M874.27,33.34v-7.43h8.8v7.43h-8.8ZM874.49,66.09v-29.5h8.37v29.5h-8.37Z"/>
    <path class="st2" d="M909.38,66.09v-16.41c0-1.98-.44-3.47-1.32-4.48-.88-1-2.13-1.51-3.74-1.51s-2.89.5-3.82,1.51c-.94,1.01-1.4,2.5-1.4,4.48v16.41h-8.37v-29.5h8.37v4.22c.48-.63,1-1.23,1.57-1.8s1.2-1.08,1.9-1.52,1.47-.8,2.31-1.05c.84-.26,1.8-.39,2.86-.39,3.19,0,5.66.97,7.4,2.92,1.74,1.94,2.61,4.62,2.61,8.03v19.1h-8.37Z"/>
    <path class="st2" d="M953.65,66.55c-.68,1.96-1.71,3.57-3.08,4.82s-3.09,2.16-5.14,2.75c-2.06.59-4.46.88-7.21.88-2.42,0-4.73-.27-6.93-.8-2.2-.53-4.24-1.29-6.11-2.28l2.86-6.27c1.54.84,3.09,1.5,4.65,1.98s3.33.72,5.31.72c2.86,0,4.98-.68,6.36-2.04,1.37-1.36,2.06-3.36,2.06-6v-1.43c-1.25,1.5-2.61,2.68-4.07,3.52-1.47.84-3.32,1.26-5.56,1.26-1.72,0-3.37-.3-4.95-.91s-2.97-1.49-4.18-2.67-2.17-2.62-2.89-4.32c-.72-1.7-1.07-3.66-1.07-5.86v-.11c0-2.2.37-4.16,1.1-5.86s1.71-3.14,2.92-4.32c1.21-1.17,2.6-2.06,4.18-2.67,1.58-.61,3.21-.91,4.9-.91,2.28,0,4.15.42,5.61,1.26,1.47.85,2.77,1.89,3.91,3.14v-3.85h8.36v22.84c0,2.79-.34,5.16-1.02,7.13h0ZM946.41,49.8c0-.99-.18-1.91-.55-2.75s-.87-1.57-1.51-2.17c-.64-.61-1.4-1.07-2.28-1.4s-1.84-.5-2.86-.5-1.97.17-2.83.5c-.86.33-1.61.8-2.26,1.4-.64.61-1.15,1.33-1.51,2.17-.37.84-.55,1.76-.55,2.75v.11c0,2.06.68,3.71,2.04,4.95,1.36,1.25,3.06,1.87,5.12,1.87,1.03,0,1.98-.16,2.86-.49s1.64-.8,2.28-1.4c.64-.61,1.14-1.33,1.51-2.17s.55-1.76.55-2.75v-.11h0Z"/>
    <path class="st2" d="M979.43,66.09v-3.19c-1.03,1.14-2.26,2.05-3.69,2.73s-3.17,1.02-5.23,1.02c-1.39,0-2.71-.19-3.94-.58s-2.3-.96-3.22-1.73c-.92-.77-1.64-1.72-2.17-2.84-.53-1.12-.8-2.41-.8-3.88v-.11c0-1.61.29-3.01.88-4.18.59-1.17,1.4-2.15,2.45-2.92,1.04-.77,2.29-1.35,3.74-1.73,1.45-.39,3.05-.58,4.82-.58,1.5,0,2.82.11,3.94.33s2.21.52,3.27.88v-.5c0-1.76-.53-3.1-1.59-4.02-1.06-.92-2.64-1.37-4.73-1.37-1.61,0-3.04.14-4.27.41-1.23.28-2.52.67-3.88,1.18l-2.09-6.39c1.61-.7,3.3-1.26,5.06-1.7,1.76-.44,3.89-.66,6.38-.66,4.59,0,7.92,1.12,10.02,3.36,2.09,2.24,3.14,5.36,3.14,9.36v17.11h-8.09ZM979.6,54.2c-.73-.33-1.55-.6-2.45-.8s-1.86-.3-2.89-.3c-1.8,0-3.21.35-4.24,1.04-1.03.7-1.54,1.71-1.54,3.03v.11c0,1.14.42,2.02,1.26,2.64.84.63,1.94.94,3.3.94,1.98,0,3.57-.48,4.76-1.43s1.79-2.2,1.79-3.74v-1.49h.01Z"/>
    <path class="st2" d="M995.12,66.09V25.91h8.37v40.17h-8.37Z"/>
    <path class="st7" d="M1013.05,27.56h4.35v34.5h21.68v4.02h-26.03V27.56h0Z"/>
    <path class="st0" d="M1052.1,41.57c-1.38.39-2.73.89-4.05,1.51l-1.26-3.47c1.58-.73,3.17-1.31,4.79-1.73s3.47-.63,5.56-.63c3.89,0,6.88.96,8.97,2.89,2.09,1.93,3.14,4.78,3.14,8.56v17.39h-4.07v-4.29c-.99,1.28-2.32,2.42-3.99,3.41-1.67.99-3.77,1.49-6.3,1.49-1.32,0-2.62-.18-3.88-.55-1.27-.37-2.4-.93-3.41-1.68-1.01-.75-1.82-1.68-2.42-2.78-.61-1.1-.91-2.4-.91-3.91s.29-2.84.88-3.99c.59-1.16,1.42-2.12,2.51-2.89,1.08-.77,2.37-1.36,3.85-1.76,1.48-.4,3.13-.61,4.92-.61s3.43.11,4.79.33,2.68.51,3.96.88v-.99c0-2.57-.74-4.5-2.23-5.81-1.49-1.3-3.57-1.95-6.25-1.95-1.69,0-3.22.19-4.6.58h0ZM1050.74,53.26c-1.43,1.06-2.14,2.51-2.14,4.35,0,.92.19,1.73.58,2.42.38.7.91,1.29,1.56,1.79.66.5,1.42.87,2.28,1.13.86.26,1.76.39,2.72.39,1.31,0,2.55-.19,3.7-.58,1.15-.39,2.16-.92,3.02-1.6.86-.68,1.53-1.49,2.03-2.42s.74-1.97.74-3.11v-2.75c-1.06-.29-2.28-.57-3.65-.83-1.37-.26-2.93-.39-4.69-.39-2.67,0-4.72.53-6.14,1.6h-.01Z"/>
    <path class="st8" d="M1105.84,58.11c-.77,1.84-1.79,3.38-3.05,4.65-1.27,1.26-2.72,2.24-4.35,2.91-1.63.68-3.31,1.02-5.04,1.02-1.32,0-2.53-.17-3.63-.5s-2.09-.77-2.97-1.32c-.88-.55-1.68-1.19-2.39-1.93-.72-.73-1.35-1.5-1.9-2.31v5.45h-4.24V25.91h4.24v17.44c.59-.84,1.24-1.65,1.95-2.42.72-.77,1.51-1.44,2.39-2.01s1.86-1.03,2.94-1.38c1.08-.35,2.28-.52,3.6-.52,1.69,0,3.35.33,4.98.99s3.09,1.62,4.38,2.89c1.28,1.26,2.31,2.82,3.08,4.65s1.16,3.93,1.16,6.27-.39,4.44-1.16,6.27v.02ZM1101.85,47.34c-.53-1.35-1.26-2.51-2.17-3.48-.92-.97-1.98-1.71-3.19-2.22-1.21-.51-2.5-.77-3.85-.77s-2.6.26-3.83.79c-1.23.53-2.33,1.27-3.3,2.22s-1.74,2.1-2.31,3.45c-.57,1.35-.85,2.85-.85,4.49s.28,3.15.85,4.52c.57,1.37,1.34,2.53,2.31,3.48s2.07,1.69,3.3,2.22c1.23.53,2.51.79,3.83.79s2.65-.25,3.88-.74,2.29-1.2,3.19-2.14,1.61-2.08,2.15-3.45c.53-1.37.8-2.91.8-4.63s-.27-3.19-.8-4.55v.02Z"/>
    <g>
      <path class="st2" d="M780.44,88.37h1.19v9.47h5.95v1.1h-7.15v-10.58h0Z"/>
      <path class="st2" d="M803.87,98.94h-1.28l-1.24-2.79h-5.76l-1.25,2.79h-1.22l4.82-10.65h1.12l4.82,10.65h-.01ZM798.48,89.7l-2.42,5.39h4.82l-2.4-5.39Z"/>
      <path class="st2" d="M816.1,88.56c.42.13.78.3,1.09.53.3.23.53.5.69.83s.24.69.24,1.09c0,.35-.05.66-.14.92s-.22.49-.38.69c-.16.2-.34.37-.53.51-.2.14-.4.25-.61.34.31.09.61.21.88.36.28.15.52.32.72.52s.36.44.48.72c.12.28.18.6.18.97,0,.45-.09.86-.27,1.22s-.44.67-.78.91c-.34.25-.74.44-1.21.57s-1,.2-1.57.2h-4.69v-10.58h4.49c.52,0,.99.06,1.42.19h-.01ZM816.25,92.59c.45-.32.68-.8.68-1.43,0-.54-.2-.96-.6-1.27s-.98-.47-1.73-.47h-3.21v3.66h3.12c.71,0,1.3-.16,1.75-.49h0ZM816.82,97.38c.46-.33.69-.8.69-1.41s-.24-1.04-.71-1.36-1.17-.48-2.09-.48h-3.33v3.75h3.54c.8,0,1.44-.17,1.9-.5h0Z"/>
      <path class="st2" d="M835.25,95.73c-.26.66-.63,1.24-1.1,1.74s-1.04.9-1.71,1.2c-.66.3-1.4.45-2.21.45s-1.54-.15-2.2-.44-1.23-.69-1.7-1.18c-.47-.5-.84-1.08-1.1-1.74s-.39-1.36-.39-2.09.13-1.43.39-2.09c.26-.66.63-1.24,1.1-1.75.47-.5,1.04-.9,1.71-1.2.66-.3,1.4-.45,2.21-.45s1.54.15,2.2.44c.66.29,1.23.69,1.7,1.19.47.5.84,1.08,1.1,1.74s.39,1.36.39,2.09-.13,1.43-.39,2.09ZM834.09,91.96c-.21-.53-.5-1-.87-1.39s-.81-.7-1.32-.94c-.51-.23-1.07-.35-1.67-.35s-1.16.11-1.67.34c-.51.23-.94.54-1.31.93-.36.39-.65.85-.85,1.38-.21.53-.31,1.09-.31,1.7s.1,1.17.31,1.71c.21.53.5,1,.87,1.39s.81.71,1.32.94,1.06.35,1.67.35,1.16-.11,1.67-.34c.51-.23.94-.54,1.31-.93.36-.39.65-.85.85-1.38.21-.53.31-1.09.31-1.7s-.1-1.17-.31-1.71Z"/>
      <path class="st2" d="M849.68,98.94l-3.07-4.11h-3.02v4.11h-1.19v-10.58h4.55c.58,0,1.11.08,1.58.23.47.15.87.37,1.2.64.33.28.59.61.77,1s.27.82.27,1.29c0,.44-.07.84-.21,1.19-.14.35-.34.65-.6.91-.26.26-.56.47-.91.64s-.74.29-1.15.36l3.25,4.32h-1.47ZM848.86,90.02c-.47-.37-1.14-.55-2-.55h-3.27v4.3h3.26c.39,0,.76-.05,1.09-.15s.62-.24.86-.43.43-.42.57-.69c.14-.27.2-.58.2-.93,0-.67-.24-1.18-.71-1.55Z"/>
      <path class="st2" d="M867.4,98.94h-1.28l-1.24-2.79h-5.76l-1.25,2.79h-1.22l4.82-10.65h1.12l4.82,10.65h-.01ZM862,89.7l-2.42,5.39h4.82l-2.4-5.39Z"/>
      <path class="st2" d="M876.34,98.94h-1.19v-9.47h-3.55v-1.1h8.29v1.1h-3.55v9.47Z"/>
      <path class="st2" d="M896.29,95.73c-.26.66-.63,1.24-1.1,1.74s-1.04.9-1.71,1.2c-.66.3-1.4.45-2.21.45s-1.54-.15-2.2-.44c-.66-.29-1.23-.69-1.7-1.18-.47-.5-.84-1.08-1.1-1.74s-.39-1.36-.39-2.09.13-1.43.39-2.09c.26-.66.63-1.24,1.1-1.75.47-.5,1.04-.9,1.71-1.2.66-.3,1.4-.45,2.21-.45s1.54.15,2.2.44c.66.29,1.23.69,1.7,1.19.47.5.84,1.08,1.1,1.74s.39,1.36.39,2.09-.13,1.43-.39,2.09ZM895.14,91.96c-.21-.53-.5-1-.87-1.39s-.81-.7-1.32-.94c-.51-.23-1.07-.35-1.67-.35s-1.16.11-1.67.34c-.51.23-.94.54-1.31.93-.36.39-.65.85-.85,1.38-.21.53-.31,1.09-.31,1.7s.1,1.17.31,1.71c.21.53.5,1,.87,1.39s.81.71,1.32.94,1.06.35,1.67.35,1.16-.11,1.67-.34c.51-.23.94-.54,1.31-.93.36-.39.65-.85.85-1.38.21-.53.31-1.09.31-1.7s-.1-1.17-.31-1.71ZM890.9,87.43l1.44-2.19,1.21.56-1.71,1.63s-.94,0-.94,0Z"/>
      <path class="st2" d="M910.72,98.94l-3.07-4.11h-3.02v4.11h-1.19v-10.58h4.55c.58,0,1.11.08,1.58.23.47.15.87.37,1.2.64.33.28.59.61.77,1s.27.82.27,1.29c0,.44-.07.84-.21,1.19-.14.35-.34.65-.6.91-.26.26-.56.47-.91.64s-.74.29-1.15.36l3.25,4.32h-1.47ZM909.9,90.02c-.47-.37-1.14-.55-2-.55h-3.27v4.3h3.26c.39,0,.76-.05,1.09-.15s.62-.24.86-.43.43-.42.57-.69c.14-.27.2-.58.2-.93,0-.67-.24-1.18-.71-1.55Z"/>
      <path class="st2" d="M919.89,88.37v10.58h-1.19v-10.58h1.19Z"/>
      <path class="st2" d="M937.14,95.73c-.26.66-.63,1.24-1.1,1.74s-1.04.9-1.71,1.2c-.66.3-1.4.45-2.21.45s-1.54-.15-2.2-.44c-.66-.29-1.23-.69-1.7-1.18-.47-.5-.84-1.08-1.1-1.74s-.39-1.36-.39-2.09.13-1.43.39-2.09c.26-.66.63-1.24,1.1-1.75.47-.5,1.04-.9,1.71-1.2.66-.3,1.4-.45,2.21-.45s1.54.15,2.2.44c.66.29,1.23.69,1.7,1.19.47.5.84,1.08,1.1,1.74s.39,1.36.39,2.09-.13,1.43-.39,2.09ZM935.99,91.96c-.21-.53-.5-1-.87-1.39s-.81-.7-1.32-.94c-.51-.23-1.07-.35-1.67-.35s-1.16.11-1.67.34c-.51.23-.94.54-1.31.93-.36.39-.65.85-.85,1.38-.21.53-.31,1.09-.31,1.7s.1,1.17.31,1.71c.21.53.5,1,.87,1.39s.81.71,1.32.94,1.06.35,1.67.35,1.16-.11,1.67-.34c.51-.23.94-.54,1.31-.93.36-.39.65-.85.85-1.38.21-.53.31-1.09.31-1.7s-.1-1.17-.31-1.71Z"/>
      <path class="st2" d="M961.93,95.73c-.27.65-.66,1.21-1.16,1.68s-1.09.85-1.78,1.12c-.69.27-1.45.41-2.27.41h-3.67v-10.58h3.67c.83,0,1.58.13,2.27.4.69.27,1.28.64,1.78,1.11s.88,1.03,1.16,1.68.41,1.34.41,2.08-.14,1.44-.41,2.09h0ZM960.79,92.02c-.21-.51-.5-.96-.88-1.34s-.84-.67-1.38-.89-1.15-.32-1.81-.32h-2.48v8.37h2.48c.66,0,1.27-.11,1.81-.32s1-.51,1.38-.88.67-.82.88-1.32.31-1.05.31-1.65-.1-1.13-.31-1.65Z"/>
      <path class="st2" d="M976.74,89.45h-6.45v3.61h5.77v1.09h-5.77v3.7h6.53v1.09h-7.72v-10.58h7.64v1.09h0Z"/>
      <path class="st2" d="M993.51,88.37v10.58h-1.19v-10.58h1.19Z"/>
      <path class="st2" d="M1008.61,88.37h1.16v10.58h-.95l-6.83-8.67v8.67h-1.16v-10.58h1.12l6.66,8.47v-8.47h0Z"/>
      <path class="st2" d="M1026.92,95.73c-.26.66-.63,1.24-1.1,1.74s-1.04.9-1.71,1.2c-.66.3-1.4.45-2.21.45s-1.54-.15-2.2-.44c-.66-.29-1.23-.69-1.7-1.18-.47-.5-.84-1.08-1.1-1.74s-.39-1.36-.39-2.09.13-1.43.39-2.09c.26-.66.63-1.24,1.1-1.75.47-.5,1.04-.9,1.71-1.2.66-.3,1.4-.45,2.21-.45s1.54.15,2.2.44c.66.29,1.23.69,1.7,1.19.47.5.84,1.08,1.1,1.74s.39,1.36.39,2.09-.13,1.43-.39,2.09ZM1025.77,91.96c-.21-.53-.5-1-.87-1.39s-.81-.7-1.32-.94c-.51-.23-1.07-.35-1.67-.35s-1.16.11-1.67.34c-.51.23-.94.54-1.31.93-.36.39-.65.85-.85,1.38-.21.53-.31,1.09-.31,1.7s.1,1.17.31,1.71c.21.53.5,1,.87,1.39s.81.71,1.32.94,1.06.35,1.67.35,1.16-.11,1.67-.34c.51-.23.94-.54,1.31-.93.36-.39.65-.85.85-1.38.21-.53.31-1.09.31-1.7s-.1-1.17-.31-1.71Z"/>
      <path class="st2" d="M1041.41,88.37h1.28l-4.55,10.65h-1.06l-4.55-10.65h1.33l3.76,9.11,3.78-9.11h0Z"/>
      <path class="st2" d="M1057.35,98.94h-1.28l-1.24-2.79h-5.76l-1.25,2.79h-1.22l4.82-10.65h1.12l4.82,10.65h-.01ZM1051.95,89.7l-2.42,5.39h4.82l-2.4-5.39Z"/>
      <path class="st2" d="M1065.93,98.48c-.56-.31-1.05-.7-1.45-1.18s-.72-1.03-.94-1.65c-.23-.62-.34-1.28-.34-1.99,0-.76.13-1.47.4-2.13.27-.67.64-1.25,1.11-1.75s1.04-.89,1.69-1.18,1.37-.43,2.15-.43c.48,0,.92.04,1.31.12s.75.19,1.08.34.64.32.92.53c.28.21.55.44.82.69l-.82.88c-.45-.42-.94-.77-1.46-1.04-.52-.27-1.14-.41-1.87-.41-.58,0-1.13.11-1.62.33-.5.22-.93.53-1.3.92s-.65.85-.86,1.38c-.21.53-.31,1.1-.31,1.71s.1,1.19.31,1.72.49,1,.86,1.39.8.7,1.3.93,1.04.34,1.62.34c.73,0,1.35-.13,1.87-.4.52-.27,1.04-.64,1.54-1.13l.79.77c-.26.27-.53.52-.82.73-.28.22-.58.41-.91.57-.32.16-.67.29-1.04.38-.37.1-.78.15-1.22.17l-1,2.16-1.13-.51,1.16-1.69c-.66-.09-1.28-.29-1.84-.6v.03Z"/>
      <path class="st2" d="M1088.89,98.94h-1.28l-1.24-2.79h-5.76l-1.25,2.79h-1.22l4.82-10.65h1.12l4.82,10.65h-.01ZM1085.43,87.07c-.22.24-.51.36-.88.36-.17,0-.35-.03-.53-.09-.18-.06-.36-.13-.54-.2s-.35-.14-.51-.21c-.16-.06-.31-.1-.44-.1-.2,0-.36.05-.46.16-.11.11-.21.3-.32.56l-.71-.2c.15-.57.34-.98.56-1.22s.51-.36.88-.36c.17,0,.35.03.53.1.18.06.36.13.54.21.18.07.35.14.51.2s.31.09.44.09c.2,0,.36-.05.46-.16.11-.11.21-.3.32-.56l.71.2c-.15.57-.34.98-.56,1.22ZM1083.5,89.7l-2.42,5.39h4.82l-2.4-5.39Z"/>
      <path class="st2" d="M1105.13,95.73c-.26.66-.63,1.24-1.1,1.74s-1.04.9-1.71,1.2c-.66.3-1.4.45-2.21.45s-1.54-.15-2.2-.44c-.66-.29-1.23-.69-1.7-1.18-.47-.5-.84-1.08-1.1-1.74s-.39-1.36-.39-2.09.13-1.43.39-2.09c.26-.66.63-1.24,1.1-1.75.47-.5,1.04-.9,1.71-1.2.66-.3,1.4-.45,2.21-.45s1.54.15,2.2.44c.66.29,1.23.69,1.7,1.19.47.5.84,1.08,1.1,1.74s.39,1.36.39,2.09-.13,1.43-.39,2.09ZM1103.97,91.96c-.21-.53-.5-1-.87-1.39s-.81-.7-1.32-.94c-.51-.23-1.07-.35-1.67-.35s-1.16.11-1.67.34c-.51.23-.94.54-1.31.93-.36.39-.65.85-.85,1.38-.21.53-.31,1.09-.31,1.7s.1,1.17.31,1.71c.21.53.5,1,.87,1.39s.81.71,1.32.94,1.06.35,1.67.35,1.16-.11,1.67-.34c.51-.23.94-.54,1.31-.93.36-.39.65-.85.85-1.38.21-.53.31-1.09.31-1.7s-.1-1.17-.31-1.71Z"/>
    </g>
  </g>
  <g>
    <rect class="st6" x="342.49" y="14.54" width="3" height="85.92"/>
    <rect class="st5" x="663.45" y="14.54" width="3" height="85.92"/>
  </g>
  <g>
    <g>
      <path class="st2" d="M389.39,45.83h10.27v1.4c0,2.64.31,4.49.93,5.57s1.67,1.62,3.14,1.62c1.18,0,2.12-.41,2.8-1.23.68-.82,1.03-1.93,1.03-3.34,0-2.32-1.67-4.55-5.01-6.69-.54-.37-.95-.65-1.24-.84l-.53-.34c-4.5-3.03-7.3-5.31-8.4-6.84-.79-1.16-1.39-2.47-1.8-3.92-.42-1.45-.62-3.04-.62-4.76,0-4.19,1.21-7.48,3.64-9.86,2.43-2.39,5.77-3.58,10.02-3.58,4.62,0,8.16,1.17,10.59,3.52,2.44,2.35,3.65,5.74,3.65,10.18,0,.19-.01.44-.03.78s-.03.59-.03.78h-10.05v-.59c0-2.09-.33-3.68-.98-4.76-.65-1.08-1.6-1.62-2.85-1.62-1.06,0-1.91.38-2.55,1.14s-.96,1.76-.96,3c0,2.03,1.83,4.19,5.48,6.47.66.44,1.17.77,1.53,1,.29.17.69.43,1.21.78,3.92,2.49,6.43,4.59,7.53,6.28.69,1.1,1.21,2.35,1.57,3.75.36,1.4.54,2.92.54,4.56,0,4.79-1.24,8.48-3.73,11.08-2.49,2.59-6.05,3.89-10.67,3.89-4.85,0-8.5-1.24-10.94-3.72-2.44-2.48-3.65-6.17-3.65-11.06,0-.31,0-.64.02-.98.01-.34.04-.89.11-1.63Z"/>
      <path class="st2" d="M423.02,62.07V14.16h26.07v9.3h-14.94v8.8h13.78v9.61h-13.78v10.46h14.94v9.74h-26.07Z"/>
      <path class="st2" d="M474.39,43.53h11.01c.02.29.04.6.05.93.01.33.02.83.02,1.5,0,5.85-1.28,10.19-3.84,13.02-2.56,2.83-6.49,4.25-11.78,4.25-3.11,0-5.78-.52-8-1.56-2.22-1.04-4.01-2.6-5.38-4.7-.95-1.49-1.64-3.57-2.05-6.22s-.62-6.87-.62-12.63.21-9.98.62-12.63,1.1-4.73,2.05-6.22c1.35-2.07,3.12-3.64,5.32-4.68,2.2-1.05,4.82-1.57,7.87-1.57,5.25,0,9.18,1.46,11.81,4.37,2.62,2.91,3.94,7.28,3.94,13.08v.47l-10.89-.03c-.04-3.26-.42-5.54-1.12-6.86-.71-1.32-1.89-1.97-3.55-1.97-1.81,0-3.04.8-3.7,2.41-.66,1.61-1,5.85-1,12.74v.9c0,7.41.33,11.94,1,13.61.66,1.67,1.9,2.5,3.7,2.5,1.68,0,2.86-.61,3.53-1.82.68-1.21,1.01-3.47,1.01-6.77v-2.12Z"/>
      <path class="st2" d="M491.48,62.07V14.16h11.01c4.06,0,7.07.18,9.01.53,1.94.35,3.57.94,4.9,1.77,1.76,1.08,3.11,2.68,4.03,4.81.92,2.13,1.38,4.66,1.38,7.61,0,4.85-1.28,8.54-3.84,11.06-2.56,2.52-6.32,3.78-11.28,3.78h-3.95v18.36h-11.26ZM502.74,34.79c.17.02.36.04.58.06.22.02.52.03.92.03,2.24,0,3.86-.52,4.85-1.57,1-1.05,1.5-2.73,1.5-5.06,0-1.93-.53-3.32-1.59-4.17-1.06-.85-2.82-1.27-5.29-1.27h-.96v11.98Z"/>
      <path class="st2" d="M551.19,62.07h-24.67V14.16h11.2v38.24h13.47v9.68Z"/>
      <path class="st2" d="M552.59,62.07l10.45-47.92h13.32l10.33,47.92h-11.2l-1.4-9.18h-8.8l-1.4,9.18h-11.29ZM566.44,44.25h6.44l-3.2-20.91-3.24,20.91Z"/>
      <path class="st2" d="M589.8,62.07V14.16h11.67l9.3,29.56c-.37-4.98-.65-9.27-.82-12.88-.18-3.61-.27-6.66-.27-9.15v-7.53h9.99v47.92h-11.7l-9.37-30.46c.41,3.96.73,7.81.95,11.53.22,3.72.33,7.34.33,10.84v8.09h-10.08Z"/>
    </g>
    <g>
      <path class="st2" d="M396.71,84.49c-.7,0-1.28-.15-1.75-.45-.47-.3-.82-.72-1.06-1.25s-.38-1.15-.42-1.85l1.5-.41c.03.43.1.85.2,1.25.1.4.28.73.52.99s.58.38,1.01.38.78-.12,1-.37c.23-.24.34-.6.34-1.06,0-.55-.12-1-.38-1.33-.25-.34-.57-.68-.95-1.02l-2.04-1.8c-.4-.35-.7-.73-.89-1.15-.19-.42-.29-.93-.29-1.54,0-.89.25-1.58.77-2.07.51-.49,1.21-.74,2.09-.74.48,0,.9.06,1.27.19.37.12.67.32.92.58.24.26.44.59.59.99.15.4.24.86.29,1.39l-1.44.39c-.03-.4-.09-.77-.18-1.1-.09-.34-.25-.61-.47-.81-.22-.21-.55-.31-.97-.31s-.75.11-.99.34c-.23.23-.35.56-.35,1,0,.37.06.68.19.92.13.24.33.49.61.74l2.06,1.8c.46.4.87.88,1.22,1.44.35.55.53,1.21.53,1.98,0,.6-.13,1.12-.38,1.55-.25.44-.59.77-1.03,1s-.94.35-1.51.35Z"/>
      <path class="st2" d="M402.46,84.36v-12.17h4.72v1.26h-3.02v4.03h2.45v1.2h-2.45v4.46h3.05v1.22h-4.75Z"/>
      <path class="st2" d="M413.13,84.49c-.86,0-1.53-.18-2.01-.54-.48-.36-.81-.85-.99-1.46-.19-.61-.28-1.29-.28-2.04v-4.3c0-.82.09-1.54.28-2.15.19-.61.52-1.09.99-1.42.48-.33,1.14-.5,2.01-.5.76,0,1.36.14,1.81.42.44.28.77.68.96,1.2.2.52.29,1.15.29,1.88v.96h-1.61v-.86c0-.45-.02-.85-.07-1.2-.04-.34-.17-.61-.37-.8s-.54-.29-1.01-.29-.83.1-1.05.31c-.22.21-.37.5-.43.87-.07.38-.1.81-.1,1.32v4.82c0,.61.05,1.1.15,1.45.1.36.27.61.5.76.23.15.54.23.93.23.46,0,.79-.1.99-.31.2-.21.32-.49.38-.85.05-.36.08-.78.08-1.26v-.9h1.61v.9c0,.74-.09,1.4-.27,1.96-.18.57-.49,1.01-.93,1.32-.44.32-1.06.48-1.86.48Z"/>
      <path class="st2" d="M419.32,84.36v-12.17h2.45c.81,0,1.48.11,2.01.32.53.21.93.56,1.18,1.04s.38,1.1.38,1.87c0,.47-.05.9-.15,1.28s-.26.71-.48.98-.51.46-.87.58l1.73,6.1h-1.64l-1.59-5.71h-1.32v5.71h-1.7ZM421.02,77.43h.65c.48,0,.87-.06,1.17-.18.3-.12.52-.32.66-.62.14-.29.21-.7.21-1.22,0-.71-.13-1.22-.39-1.54s-.78-.47-1.55-.47h-.75v4.03Z"/>
      <path class="st2" d="M428.62,84.36v-12.17h4.72v1.26h-3.02v4.03h2.45v1.2h-2.45v4.46h3.05v1.22h-4.75Z"/>
      <path class="st2" d="M437.58,84.36v-10.91h-2.06v-1.26h5.75v1.26h-2v10.91h-1.7Z"/>
      <path class="st2" d="M443.26,84.36l2.58-12.17h1.64l2.6,12.17h-1.61l-.56-3.07h-2.48l-.59,3.07h-1.59ZM445.66,80.07h2.03l-1.02-5.48-1.01,5.48Z"/>
      <path class="st2" d="M452.81,84.36v-12.17h2.45c.81,0,1.48.11,2.01.32.53.21.93.56,1.18,1.04s.38,1.1.38,1.87c0,.47-.05.9-.15,1.28s-.26.71-.48.98-.51.46-.87.58l1.73,6.1h-1.64l-1.59-5.71h-1.32v5.71h-1.7ZM454.51,77.43h.65c.48,0,.87-.06,1.17-.18.3-.12.52-.32.66-.62.14-.29.21-.7.21-1.22,0-.71-.13-1.22-.39-1.54s-.78-.47-1.55-.47h-.75v4.03Z"/>
      <path class="st2" d="M462.21,84.36v-12.17h1.67v12.17h-1.67Z"/>
      <path class="st2" d="M466.69,84.36l2.58-12.17h1.64l2.6,12.17h-1.61l-.56-3.07h-2.48l-.59,3.07h-1.59ZM469.09,80.07h2.03l-1.02-5.48-1.01,5.48Z"/>
      <path class="st2" d="M481.18,84.36v-12.17h2.65c.9,0,1.62.14,2.14.41s.9.69,1.13,1.24c.22.55.34,1.24.34,2.06v4.48c0,.86-.11,1.59-.34,2.18-.23.59-.59,1.04-1.1,1.35-.51.3-1.19.46-2.04.46h-2.78ZM482.88,83.14h.96c.62,0,1.06-.12,1.32-.36.26-.24.42-.59.47-1.05s.08-1.02.08-1.67v-3.95c0-.63-.04-1.14-.12-1.53-.08-.39-.25-.68-.52-.86-.27-.18-.7-.27-1.28-.27h-.92v9.69Z"/>
      <path class="st2" d="M490.61,84.36v-12.17h4.72v1.26h-3.02v4.03h2.45v1.2h-2.45v4.46h3.05v1.22h-4.75Z"/>
      <path class="st2" d="M503.17,84.36v-12.17h3.02c.73,0,1.32.13,1.75.4.43.27.75.65.95,1.15.2.5.3,1.11.3,1.82,0,.64-.11,1.2-.34,1.67-.23.47-.56.83-1,1.09-.44.25-.99.38-1.65.38h-1.34v5.67h-1.7ZM504.87,77.48h.78c.49,0,.88-.06,1.16-.17.28-.11.48-.3.6-.58s.18-.66.18-1.16c0-.58-.04-1.03-.13-1.34-.09-.31-.26-.53-.53-.65-.27-.12-.69-.18-1.26-.18h-.8v4.07Z"/>
      <path class="st2" d="M511.89,84.36v-12.17h1.7v10.95h3.11v1.22h-4.81Z"/>
      <path class="st2" d="M518.7,84.36l2.58-12.17h1.64l2.6,12.17h-1.61l-.56-3.07h-2.48l-.59,3.07h-1.59ZM521.1,80.07h2.03l-1.02-5.48-1.01,5.48Z"/>
      <path class="st2" d="M528.25,84.36v-12.17h1.16l3.46,8.09v-8.09h1.41v12.17h-1.08l-3.5-8.31v8.31h-1.44Z"/>
      <path class="st2" d="M537.69,84.36v-12.17h4.72v1.26h-3.02v4.03h2.45v1.2h-2.45v4.46h3.05v1.22h-4.75Z"/>
      <path class="st2" d="M544.47,84.64v-1.22c.37,0,.67-.02.9-.07.23-.05.41-.14.53-.27.13-.13.21-.32.26-.56.05-.25.08-.56.08-.94v-9.39h1.68v9.42c0,.7-.08,1.27-.22,1.72-.15.44-.42.78-.8.99-.38.21-.92.32-1.62.32h-.81Z"/>
      <path class="st2" d="M550.67,84.36l2.58-12.17h1.64l2.6,12.17h-1.61l-.56-3.07h-2.48l-.59,3.07h-1.59ZM553.08,80.07h2.03l-1.02-5.48-1.01,5.48Z"/>
      <path class="st2" d="M560.2,84.36l.23-12.17h1.67l2.15,9.87,2.16-9.87h1.65l.22,12.17h-1.37l-.13-8.84-2.06,8.84h-.96l-2.04-8.84-.14,8.84h-1.38Z"/>
      <path class="st2" d="M571.65,84.36v-12.17h4.72v1.26h-3.02v4.03h2.45v1.2h-2.45v4.46h3.05v1.22h-4.75Z"/>
      <path class="st2" d="M579.27,84.36v-12.17h1.16l3.46,8.09v-8.09h1.41v12.17h-1.08l-3.5-8.31v8.31h-1.44Z"/>
      <path class="st2" d="M590.05,84.36v-10.91h-2.06v-1.26h5.75v1.26h-2v10.91h-1.7Z"/>
      <path class="st2" d="M599.53,84.49c-.82,0-1.48-.16-1.97-.48s-.84-.78-1.05-1.37c-.21-.6-.31-1.3-.31-2.1v-4.61c0-.8.11-1.49.32-2.07.22-.58.57-1.02,1.05-1.32.49-.3,1.14-.46,1.96-.46s1.47.16,1.95.47.83.75,1.04,1.32c.22.57.32,1.26.32,2.06v4.63c0,.79-.11,1.48-.32,2.07-.21.59-.56,1.05-1.04,1.37-.48.33-1.13.49-1.95.49ZM599.53,83.16c.45,0,.79-.09,1.02-.28.23-.18.39-.44.47-.78.08-.33.12-.73.12-1.18v-5.34c0-.45-.04-.84-.12-1.16-.08-.32-.24-.58-.47-.75s-.57-.26-1.02-.26-.79.09-1.03.26c-.24.18-.39.43-.47.75-.08.33-.12.71-.12,1.16v5.34c0,.45.04.84.12,1.18.08.34.24.6.47.78.23.19.58.28,1.03.28Z"/>
      <path class="st2" d="M393.93,102.39v-12.17h1.67v12.17h-1.67Z"/>
      <path class="st2" d="M399.07,102.39v-12.17h1.16l3.46,8.09v-8.09h1.41v12.17h-1.08l-3.5-8.31v8.31h-1.44Z"/>
      <path class="st2" d="M411.38,102.53c-.7,0-1.28-.15-1.75-.45-.47-.3-.82-.72-1.06-1.25-.24-.53-.38-1.15-.42-1.85l1.5-.41c.03.43.1.85.2,1.25.1.4.28.73.52.98.24.26.58.38,1.01.38s.78-.12,1-.37c.23-.25.34-.6.34-1.06,0-.55-.12-.99-.38-1.33-.25-.33-.57-.67-.95-1.01l-2.04-1.8c-.4-.35-.7-.73-.89-1.15s-.29-.93-.29-1.54c0-.89.25-1.58.77-2.07.51-.49,1.21-.74,2.09-.74.48,0,.9.06,1.27.19.37.13.67.32.92.58s.44.59.59.98c.15.4.24.86.29,1.39l-1.44.39c-.03-.4-.09-.77-.18-1.11-.09-.34-.25-.61-.47-.81-.22-.2-.55-.31-.97-.31s-.75.11-.99.34c-.23.22-.35.56-.35,1,0,.37.06.68.19.92.13.24.33.49.61.74l2.06,1.8c.46.4.87.88,1.22,1.44.35.56.53,1.22.53,1.98,0,.6-.13,1.12-.38,1.56-.25.43-.59.77-1.03,1s-.94.34-1.51.34Z"/>
      <path class="st2" d="M418.46,102.39v-10.91h-2.06v-1.26h5.75v1.26h-2v10.91h-1.7Z"/>
      <path class="st2" d="M424.92,102.39v-12.17h1.67v12.17h-1.67Z"/>
      <path class="st2" d="M431.4,102.39v-10.91h-2.06v-1.26h5.75v1.26h-2v10.91h-1.7Z"/>
      <path class="st2" d="M440.91,102.53c-.88,0-1.56-.18-2.03-.53s-.79-.84-.96-1.48c-.17-.63-.25-1.38-.25-2.23v-8.07h1.62v8.14c0,.52.04,1,.11,1.43s.22.77.46,1.02c.23.25.59.38,1.06.38s.84-.12,1.07-.38.38-.59.45-1.02c.07-.43.11-.91.11-1.43v-8.14h1.61v8.07c0,.85-.09,1.6-.25,2.23-.17.64-.49,1.13-.95,1.48-.47.35-1.14.53-2.02.53Z"/>
      <path class="st2" d="M450.48,102.53c-.86,0-1.53-.18-2.01-.54-.48-.36-.81-.85-.99-1.46-.19-.61-.28-1.29-.28-2.04v-4.3c0-.82.09-1.54.28-2.15.19-.61.52-1.08.99-1.42.48-.34,1.14-.5,2.01-.5.76,0,1.36.14,1.81.42.44.28.77.68.96,1.2.2.52.29,1.15.29,1.88v.96h-1.61v-.86c0-.45-.02-.85-.07-1.19-.04-.35-.17-.61-.37-.81-.2-.19-.54-.29-1.01-.29s-.83.1-1.05.31c-.22.21-.37.5-.43.87-.07.38-.1.81-.1,1.32v4.82c0,.61.05,1.09.15,1.45.1.35.27.61.5.76.23.15.54.22.93.22.46,0,.79-.1.99-.31.2-.2.32-.49.38-.85.05-.36.08-.78.08-1.26v-.9h1.61v.9c0,.74-.09,1.4-.27,1.96-.18.56-.49,1.01-.93,1.32-.44.32-1.06.47-1.86.47Z"/>
      <path class="st2" d="M456.76,102.39v-12.17h1.67v12.17h-1.67Z"/>
      <path class="st2" d="M465.01,102.53c-.82,0-1.48-.16-1.97-.48-.49-.32-.84-.78-1.05-1.37-.21-.6-.31-1.3-.31-2.1v-4.61c0-.8.11-1.49.32-2.07.22-.58.57-1.02,1.05-1.32s1.14-.46,1.96-.46,1.47.16,1.95.47c.48.31.83.75,1.04,1.32.22.57.32,1.26.32,2.06v4.63c0,.79-.11,1.48-.32,2.07-.21.59-.56,1.05-1.04,1.38-.48.32-1.13.49-1.95.49ZM465.01,101.19c.45,0,.79-.09,1.02-.28s.39-.45.47-.78c.08-.34.12-.73.12-1.18v-5.33c0-.45-.04-.84-.12-1.16-.08-.33-.24-.58-.47-.75-.23-.17-.57-.26-1.02-.26s-.79.09-1.03.26c-.24.18-.39.43-.47.75-.08.32-.12.71-.12,1.16v5.33c0,.45.04.84.12,1.18.08.33.24.6.47.78.23.19.58.28,1.03.28Z"/>
      <path class="st2" d="M471.51,102.39v-12.17h1.16l3.46,8.09v-8.09h1.41v12.17h-1.08l-3.5-8.31v8.31h-1.44Z"/>
      <path class="st2" d="M480.28,102.39l2.58-12.17h1.64l2.6,12.17h-1.61l-.56-3.07h-2.48l-.59,3.07h-1.59ZM482.69,98.11h2.03l-1.02-5.48-1.01,5.48Z"/>
      <path class="st2" d="M489.84,102.39v-12.17h1.7v10.95h3.11v1.22h-4.81Z"/>
      <path class="st2" d="M502.25,102.39v-12.17h4.72v1.26h-3.02v4.03h2.45v1.2h-2.45v4.46h3.05v1.22h-4.75Z"/>
      <path class="st2" d="M514.91,102.39v-12.17h1.67v12.17h-1.67Z"/>
      <path class="st2" d="M520.05,102.39v-12.17h1.16l3.46,8.09v-8.09h1.41v12.17h-1.08l-3.5-8.31v8.31h-1.44Z"/>
      <path class="st2" d="M532.6,102.53c-.82,0-1.48-.16-1.97-.48-.49-.32-.84-.78-1.05-1.37-.21-.6-.31-1.3-.31-2.1v-4.61c0-.8.11-1.49.32-2.07.22-.58.57-1.02,1.05-1.32s1.14-.46,1.96-.46,1.47.16,1.95.47c.48.31.83.75,1.04,1.32.22.57.32,1.26.32,2.06v4.63c0,.79-.11,1.48-.32,2.07-.21.59-.56,1.05-1.04,1.38-.48.32-1.13.49-1.95.49ZM532.6,101.19c.45,0,.79-.09,1.02-.28s.39-.45.47-.78c.08-.34.12-.73.12-1.18v-5.33c0-.45-.04-.84-.12-1.16-.08-.33-.24-.58-.47-.75-.23-.17-.57-.26-1.02-.26s-.79.09-1.03.26c-.24.18-.39.43-.47.75-.08.32-.12.71-.12,1.16v5.33c0,.45.04.84.12,1.18.08.33.24.6.47.78.23.19.58.28,1.03.28Z"/>
      <path class="st2" d="M541.21,102.39l-2.72-12.17h1.59l1.93,8.97,1.83-8.97h1.55l-2.69,12.17h-1.49Z"/>
      <path class="st2" d="M547.1,102.39l2.58-12.17h1.64l2.6,12.17h-1.61l-.56-3.07h-2.48l-.59,3.07h-1.59ZM549.5,98.11h2.03l-1.02-5.48-1.01,5.48Z"/>
      <path class="st2" d="M559.59,102.53c-.86,0-1.53-.18-2.01-.54-.48-.36-.81-.85-.99-1.46-.19-.61-.28-1.29-.28-2.04v-4.3c0-.82.09-1.54.28-2.15.19-.61.52-1.08.99-1.42.48-.34,1.14-.5,2.01-.5.76,0,1.36.14,1.81.42.44.28.77.68.96,1.2.2.52.29,1.15.29,1.88v.96h-1.61v-.86c0-.45-.02-.85-.07-1.19-.04-.35-.17-.61-.37-.81-.2-.19-.54-.29-1.01-.29s-.83.1-1.05.31c-.22.21-.37.5-.43.87-.07.38-.1.81-.1,1.32v4.82c0,.61.05,1.09.15,1.45.1.35.27.61.5.76.23.15.54.22.93.22.46,0,.79-.1.99-.31.2-.2.32-.49.38-.85.05-.36.08-.78.08-1.26v-.9h1.61v.9c0,.74-.09,1.4-.27,1.96-.18.56-.49,1.01-.93,1.32-.44.32-1.06.47-1.86.47ZM559.66,105.92c-.16,0-.33-.01-.5-.04-.17-.03-.34-.07-.51-.1v-.81c.13.04.26.07.39.08.13.02.25.02.38.02.26,0,.48-.04.65-.13s.26-.24.26-.45c0-.18-.05-.32-.15-.43-.1-.11-.25-.19-.44-.25s-.42-.12-.69-.16v-1.25h.81v.84c.5,0,.9.12,1.21.35s.46.54.46.95c0,.32-.08.58-.25.79-.17.2-.39.36-.68.46-.29.1-.6.15-.95.15Z"/>
      <path class="st2" d="M565.11,102.39l2.58-12.17h1.64l2.6,12.17h-1.61l-.56-3.07h-2.48l-.59,3.07h-1.59ZM569.67,88.39c-.28,0-.53-.06-.74-.19-.22-.13-.42-.25-.61-.37-.19-.12-.4-.18-.62-.18-.17,0-.3.04-.38.13-.08.09-.13.25-.13.48h-.92c0-.3.04-.57.11-.82.07-.24.2-.44.38-.59s.41-.22.71-.22c.25,0,.48.06.68.18.21.12.41.24.61.36.2.12.41.18.62.18.17,0,.29-.04.38-.14.08-.09.12-.25.12-.5h.9c0,.3-.03.58-.09.83-.06.25-.17.45-.33.6-.16.15-.39.23-.69.23ZM567.52,98.11h2.03l-1.02-5.48-1.01,5.48Z"/>
      <path class="st2" d="M577.72,102.53c-.82,0-1.48-.16-1.97-.48-.49-.32-.84-.78-1.05-1.37-.21-.6-.31-1.3-.31-2.1v-4.61c0-.8.11-1.49.32-2.07.22-.58.57-1.02,1.05-1.32s1.14-.46,1.96-.46,1.47.16,1.95.47c.48.31.83.75,1.04,1.32.22.57.32,1.26.32,2.06v4.63c0,.79-.11,1.48-.32,2.07-.21.59-.56,1.05-1.04,1.38-.48.32-1.13.49-1.95.49ZM577.72,101.19c.45,0,.79-.09,1.02-.28s.39-.45.47-.78c.08-.34.12-.73.12-1.18v-5.33c0-.45-.04-.84-.12-1.16-.08-.33-.24-.58-.47-.75-.23-.17-.57-.26-1.02-.26s-.79.09-1.03.26c-.24.18-.39.43-.47.75-.08.32-.12.71-.12,1.16v5.33c0,.45.04.84.12,1.18.08.33.24.6.47.78.23.19.58.28,1.03.28Z"/>
    </g>
  </g>
</svg>