<?xml version="1.0" encoding="UTF-8"?>
<svg id="Camada_1" xmlns="http://www.w3.org/2000/svg" version="1.1" xmlns:xlink="http://www.w3.org/1999/xlink" viewBox="0 0 800 226">
  <!-- Generator: Adobe Illustrator 29.7.1, SVG Export Plug-In . SVG Version: 2.1.1 Build 8)  -->
  <defs>
    <style>
      .st0 {
        fill: #fff;
      }

      .st1 {
        fill: url(#Gradiente_sem_nome_301);
      }

      .st2 {
        fill: url(#Gradiente_sem_nome_302);
      }

      .st3 {
        fill: url(#Gradiente_sem_nome_304);
      }

      .st4 {
        fill: url(#Gradiente_sem_nome_305);
      }

      .st5 {
        fill: url(#Gradiente_sem_nome_30);
      }

      .st6 {
        fill: url(#Gradiente_sem_nome_303);
      }
    </style>
    <linearGradient id="Gradiente_sem_nome_30" data-name="Gradiente sem nome 30" x1="68.38" y1="87.74" x2="116.61" y2="87.74" gradientUnits="userSpaceOnUse">
      <stop offset="0" stop-color="#e1e040"/>
      <stop offset="1" stop-color="#9fc52c"/>
    </linearGradient>
    <linearGradient id="Gradiente_sem_nome_301" data-name="Gradiente sem nome 30" x1="59.86" y1="107.82" x2="108.05" y2="107.82" xlink:href="#Gradiente_sem_nome_30"/>
    <linearGradient id="Gradiente_sem_nome_302" data-name="Gradiente sem nome 30" x1="82.84" y1="71.17" x2="127.63" y2="71.17" xlink:href="#Gradiente_sem_nome_30"/>
    <linearGradient id="Gradiente_sem_nome_303" data-name="Gradiente sem nome 30" x1="571.86" y1="80.87" x2="702.14" y2="147.31" xlink:href="#Gradiente_sem_nome_30"/>
    <linearGradient id="Gradiente_sem_nome_304" data-name="Gradiente sem nome 30" x1="583.1" y1="58.83" x2="713.38" y2="125.27" xlink:href="#Gradiente_sem_nome_30"/>
    <linearGradient id="Gradiente_sem_nome_305" data-name="Gradiente sem nome 30" x1="595.99" y1="33.56" x2="726.27" y2="100" xlink:href="#Gradiente_sem_nome_30"/>
  </defs>
  <g>
    <path class="st0" d="M116.61,146.07c.14.76.04,1.6-.27,2.37-.33.75-.81,1.45-1.38,2.04-1.14,1.2-2.56,2.06-4.02,2.73-1.47.66-3.02,1.13-4.58,1.43-1.57.29-3.16.43-4.75.45-1.59-.02-3.18-.15-4.75-.44-1.57-.31-3.11-.77-4.58-1.43-1.46-.67-2.88-1.54-4.02-2.73-.57-.59-1.05-1.29-1.38-2.05-.32-.77-.41-1.61-.27-2.37.14.37.19.74.41,1.05.14.33.38.61.59.89.49.52,1,.98,1.62,1.33,1.19.74,2.53,1.25,3.89,1.63,1.37.38,2.78.65,4.2.82,1.43.16,2.86.24,4.3.25,1.44,0,2.87-.09,4.3-.25,1.42-.17,2.83-.44,4.2-.82,1.37-.38,2.7-.89,3.89-1.63.62-.35,1.13-.82,1.62-1.33.46-.54.79-1.18,1-1.94Z"/>
    <path class="st0" d="M150.82,180.35l-3.92-16.43c-.87-6.39-5.55-11.4-11.63-12.83l15.94-54.92c5.22-17.96,1.82-37.6-9.09-52.52-9.62-13.18-23.93-21.22-39.53-22.3-.35,1.8-.67,3.79-.92,5.88,14.05.82,26.98,8.02,35.67,19.92,9.83,13.45,12.89,31.16,8.18,47.37l-18.58,64.01c-2.04,7.04-8.08,11.78-15.02,11.78h-26.07c-6.94,0-12.98-4.73-15.02-11.78l-18.58-64.01c-4.71-16.21-1.65-33.92,8.18-47.37,5.28-7.23,12.12-12.72,19.84-16.1.93-2.65,1.99-5.16,3.13-7.49-10.91,3.38-20.62,10.33-27.76,20.1-10.9,14.93-14.3,34.56-9.09,52.52l15.96,54.99c-5.95,1.51-10.51,6.46-11.37,12.76l-3.91,16.36c-4.93.96-8.67,5.31-8.67,10.51v25.66c0,1.6,1.29,2.89,2.89,2.89s2.89-1.29,2.89-2.89v-25.66c0-2.57,1.98-4.69,4.49-4.91,3.65,2.01,19.77,9.95,47.31,10.48,0,.06-.02.11-.02.16v19.93c0,1.6,1.29,2.89,2.89,2.89s2.89-1.29,2.89-2.89v-19.93c0-.06-.01-.11-.02-.16,27.41-.52,43.51-8.39,47.25-10.45,2.4.33,4.26,2.39,4.26,4.88v25.66c0,1.6,1.29,2.89,2.89,2.89s2.89-1.29,2.89-2.89v-25.66c0-5.1-3.59-9.38-8.37-10.45ZM99.03,190.61c-25.15,0-40.99-6.62-46.12-9.14l3.9-16.36.06-.31c.5-4.03,3.44-7.2,7.26-8.09l1.01,3.47c2.79,9.6,11.11,16.06,20.71,16.06h26.07c9.6,0,17.93-6.45,20.71-16.06l1.02-3.53c3.95.8,7.01,4.02,7.53,8.15l3.96,16.67c-5.13,2.53-20.98,9.14-46.12,9.14Z"/>
    <path class="st5" d="M77.41,35.48c-.3.48-25.81,42.1,10.25,63.04,30.25,17.56,26.59,41.02,26.52,41.46,8.58-28.66-7.04-44.52-24.57-57.92-17.44-13.33-12.25-46.21-12.19-46.58Z"/>
    <path class="st1" d="M63,65.81c-.21.44-14.06,36.85,18.17,51.15,27.04,12,25.96,32.46,25.94,32.85,4.78-25.41-9.53-37.94-25.71-47.14-18.28-10.39-18.42-36.53-18.4-36.86Z"/>
    <path class="st2" d="M99.7,9.29c-.43.46-37.37,40.7-.53,71.97,30.91,26.23,22.24,51.32,22.07,51.8,15.25-29.73.6-50.78-16.69-69.55-17.2-18.66-4.99-53.83-4.85-54.23Z"/>
  </g>
  <path class="st0" d="M241.31,118.31c-1.21,2.6-2.9,4.78-5.07,6.55-2.17,1.77-4.76,3.12-7.77,4.05-3.01.93-6.34,1.4-10,1.4-5.14,0-10.18-.88-15.12-2.65-4.94-1.77-9.44-4.48-13.48-8.14l8.77-10.5c3.08,2.5,6.24,4.5,9.49,5.97,3.24,1.48,6.79,2.21,10.64,2.21,3.08,0,5.48-.56,7.18-1.69,1.7-1.12,2.55-2.68,2.55-4.67v-.2c0-.96-.17-1.81-.53-2.55-.35-.74-1.03-1.43-2.03-2.07-1-.64-2.38-1.28-4.15-1.93-1.77-.64-4.07-1.31-6.91-2.02-3.41-.83-6.5-1.77-9.27-2.79-2.77-1.02-5.12-2.29-7.05-3.8-1.93-1.51-3.43-3.39-4.49-5.63-1.06-2.25-1.59-5.04-1.59-8.38v-.2c0-3.08.57-5.86,1.72-8.33,1.15-2.47,2.76-4.61,4.83-6.41,2.07-1.8,4.55-3.18,7.43-4.14,2.88-.97,6.05-1.44,9.52-1.44,4.94,0,9.49.74,13.63,2.21,4.14,1.48,7.95,3.6,11.41,6.36l-7.7,11.17c-3.02-2.05-5.97-3.68-8.86-4.86-2.89-1.19-5.78-1.78-8.67-1.78s-5.06.56-6.5,1.69c-1.44,1.12-2.16,2.52-2.16,4.19v.19c0,1.09.21,2.04.63,2.84.42.8,1.17,1.52,2.27,2.16,1.09.64,2.59,1.25,4.49,1.83,1.9.58,4.3,1.25,7.2,2.02,3.41.9,6.45,1.91,9.13,3.04,2.67,1.12,4.92,2.47,6.76,4.05s3.22,3.42,4.15,5.54c.93,2.12,1.4,4.66,1.4,7.61v.19c0,3.34-.6,6.31-1.82,8.91Z"/>
  <path class="st0" d="M302.61,106.8c-.03.51-.08,1.12-.14,1.83h-35.93c.71,3.34,2.17,5.86,4.38,7.56,2.22,1.7,4.96,2.55,8.24,2.55,2.44,0,4.62-.42,6.55-1.25,1.93-.83,3.92-2.18,5.97-4.05l8.38,7.42c-2.44,3.02-5.39,5.38-8.86,7.08-3.47,1.7-7.55,2.55-12.23,2.55-3.85,0-7.43-.64-10.74-1.93-3.31-1.28-6.17-3.12-8.57-5.49-2.41-2.38-4.29-5.19-5.64-8.43-1.35-3.25-2.02-6.85-2.02-10.84v-.19c0-3.66.63-7.13,1.88-10.4,1.25-3.28,3-6.13,5.25-8.57s4.93-4.37,8.04-5.78c3.12-1.41,6.56-2.12,10.35-2.12,4.3,0,8.03.77,11.17,2.31,3.15,1.54,5.76,3.61,7.85,6.21,2.09,2.6,3.63,5.58,4.62,8.96,1,3.37,1.49,6.89,1.49,10.55v.19c0,.71-.02,1.32-.05,1.83ZM284.93,91.53c-1.86-2.02-4.34-3.04-7.42-3.04s-5.57,1-7.47,2.99c-1.89,1.99-3.13,4.66-3.71,7.99h22.06c-.45-3.27-1.61-5.92-3.47-7.95Z"/>
  <path class="st0" d="M343.88,92.06c-4.88,0-8.71,1.48-11.51,4.43-2.79,2.95-4.19,7.55-4.19,13.77v19.07h-14.64v-51.63h14.64v10.4c1.48-3.53,3.5-6.36,6.07-8.48,2.57-2.12,6.04-3.08,10.4-2.89v15.31h-.77Z"/>
  <path class="st0" d="M354.09,72.03v-13h15.41v13h-15.41ZM354.48,129.34v-51.63h14.64v51.63h-14.64Z"/>
  <path class="st0" d="M415.54,129.34v-28.73c0-3.46-.77-6.07-2.31-7.83-1.54-1.76-3.72-2.64-6.55-2.64s-5.06.88-6.69,2.64c-1.64,1.76-2.45,4.37-2.45,7.83v28.73h-14.64v-51.63h14.64v7.38c.83-1.1,1.75-2.15,2.75-3.15.99-1,2.1-1.89,3.32-2.66,1.22-.78,2.57-1.39,4.05-1.85,1.48-.45,3.14-.68,5.01-.68,5.59,0,9.9,1.7,12.96,5.11,3.05,3.4,4.57,8.09,4.57,14.06v33.42h-14.64Z"/>
  <path class="st0" d="M493.03,130.16c-1.19,3.43-2.99,6.25-5.4,8.43-2.41,2.18-5.41,3.79-9,4.82-3.6,1.03-7.8,1.54-12.62,1.54-4.24,0-8.28-.47-12.14-1.4-3.85-.93-7.42-2.27-10.69-4l5.01-10.98c2.7,1.48,5.41,2.63,8.14,3.47,2.73.84,5.83,1.25,9.29,1.25,5.01,0,8.72-1.19,11.13-3.56,2.41-2.37,3.61-5.87,3.61-10.5v-2.5c-2.19,2.63-4.56,4.69-7.13,6.17-2.57,1.48-5.81,2.21-9.73,2.21-3.02,0-5.91-.53-8.67-1.59-2.76-1.06-5.2-2.62-7.32-4.67s-3.8-4.58-5.06-7.56c-1.25-2.98-1.88-6.4-1.88-10.26v-.19c0-3.85.64-7.27,1.93-10.26,1.28-2.98,2.99-5.5,5.11-7.56,2.12-2.05,4.56-3.61,7.32-4.67,2.76-1.06,5.62-1.59,8.57-1.59,3.98,0,7.26.74,9.83,2.21,2.57,1.48,4.85,3.31,6.84,5.49v-6.74h14.64v39.97c0,4.88-.59,9.04-1.78,12.47ZM480.36,100.83c0-1.73-.32-3.34-.97-4.82s-1.52-2.75-2.65-3.8c-1.13-1.06-2.46-1.88-4-2.46-1.54-.58-3.21-.87-5.01-.87s-3.45.29-4.96.87c-1.51.58-2.83,1.4-3.95,2.46-1.13,1.06-2.01,2.33-2.65,3.8-.64,1.48-.96,3.08-.96,4.82v.19c0,3.6,1.19,6.49,3.56,8.67,2.37,2.18,5.36,3.27,8.96,3.27,1.8,0,3.47-.29,5.01-.86,1.54-.58,2.87-1.4,4-2.46,1.12-1.06,2-2.33,2.65-3.8.64-1.48.97-3.08.97-4.82v-.19Z"/>
  <path class="st0" d="M538.16,129.34v-5.59c-1.8,1.99-3.95,3.58-6.46,4.77-2.5,1.19-5.55,1.78-9.15,1.78-2.44,0-4.74-.34-6.89-1.01-2.15-.67-4.03-1.69-5.63-3.03-1.61-1.35-2.87-3-3.8-4.96-.93-1.96-1.4-4.22-1.4-6.79v-.19c0-2.83.51-5.26,1.54-7.32,1.03-2.06,2.46-3.76,4.29-5.11,1.83-1.35,4.01-2.36,6.55-3.04,2.54-.67,5.35-1.01,8.43-1.01,2.63,0,4.93.19,6.89.58,1.95.39,3.87.9,5.73,1.54v-.87c0-3.08-.93-5.42-2.79-7.03-1.86-1.6-4.62-2.41-8.28-2.41-2.83,0-5.32.24-7.47.72-2.15.48-4.42,1.17-6.79,2.07l-3.66-11.18c2.82-1.22,5.78-2.21,8.86-2.98,3.08-.77,6.81-1.16,11.17-1.16,8.03,0,13.87,1.96,17.53,5.87,3.66,3.92,5.49,9.38,5.49,16.38v29.96h-14.16ZM538.44,108.53c-1.28-.58-2.71-1.04-4.28-1.4s-3.26-.53-5.06-.53c-3.15,0-5.62.61-7.42,1.83-1.8,1.22-2.7,2.99-2.7,5.3v.19c0,1.99.73,3.53,2.21,4.62,1.48,1.09,3.4,1.64,5.78,1.64,3.47,0,6.24-.83,8.33-2.5,2.09-1.67,3.13-3.85,3.13-6.55v-2.6Z"/>
  <path class="st0" d="M565.61,129.34V59.03h14.64v70.31h-14.64Z"/>
  <path class="st6" d="M597.01,61.92h7.61v60.39h37.95v7.03h-45.56V61.92Z"/>
  <path class="st3" d="M665.35,86.43c-2.41.67-4.77,1.56-7.08,2.65l-2.21-6.07c2.76-1.28,5.55-2.29,8.38-3.03,2.83-.74,6.07-1.11,9.73-1.11,6.81,0,12.04,1.69,15.7,5.06,3.66,3.37,5.49,8.36,5.49,14.98v30.44h-7.13v-7.51c-1.73,2.25-4.06,4.23-6.98,5.97-2.92,1.73-6.6,2.6-11.03,2.6-2.31,0-4.58-.32-6.79-.96-2.22-.64-4.21-1.62-5.97-2.94-1.77-1.31-3.18-2.94-4.24-4.86-1.06-1.92-1.59-4.2-1.59-6.84s.51-4.96,1.54-6.98c1.03-2.02,2.49-3.71,4.39-5.06,1.89-1.35,4.14-2.37,6.74-3.08,2.6-.7,5.47-1.06,8.62-1.06s6,.2,8.38.58c2.37.38,4.69.9,6.93,1.54v-1.73c0-4.5-1.3-7.88-3.9-10.16-2.6-2.28-6.25-3.42-10.93-3.42-2.95,0-5.64.34-8.04,1.01ZM662.97,106.9c-2.5,1.86-3.74,4.4-3.74,7.61,0,1.61.34,3.02,1.01,4.24.67,1.22,1.58,2.26,2.73,3.13,1.15.87,2.48,1.53,3.99,1.98,1.5.45,3.09.67,4.75.67,2.3,0,4.46-.34,6.48-1.01,2.02-.67,3.78-1.61,5.28-2.79,1.5-1.19,2.69-2.6,3.55-4.24s1.3-3.45,1.3-5.44v-4.82c-1.86-.51-3.99-.99-6.39-1.44-2.4-.45-5.14-.67-8.21-.67-4.67,0-8.26.93-10.75,2.79Z"/>
  <path class="st4" d="M759.4,115.37c-1.35,3.21-3.13,5.92-5.34,8.14-2.22,2.21-4.75,3.92-7.61,5.1-2.86,1.19-5.8,1.78-8.82,1.78-2.31,0-4.43-.29-6.35-.87-1.93-.58-3.66-1.35-5.2-2.31-1.54-.96-2.94-2.08-4.19-3.37-1.25-1.28-2.36-2.63-3.32-4.05v9.54h-7.42V59.03h7.42v30.53c1.02-1.48,2.16-2.89,3.42-4.24,1.25-1.35,2.65-2.52,4.19-3.51,1.54-1,3.26-1.8,5.15-2.41,1.9-.61,4-.91,6.31-.91,2.95,0,5.86.58,8.72,1.73,2.86,1.16,5.41,2.84,7.66,5.06,2.25,2.21,4.05,4.93,5.39,8.14,1.35,3.21,2.02,6.87,2.02,10.98s-.67,7.77-2.02,10.98ZM752.42,96.54c-.93-2.36-2.2-4.39-3.8-6.08-1.61-1.7-3.47-2.99-5.58-3.88-2.12-.9-4.37-1.34-6.74-1.34s-4.54.46-6.7,1.39c-2.15.93-4.08,2.22-5.78,3.88-1.7,1.66-3.05,3.68-4.05,6.04-1,2.36-1.49,4.98-1.49,7.86s.5,5.51,1.49,7.91c.99,2.4,2.34,4.43,4.05,6.09,1.7,1.66,3.63,2.95,5.78,3.88,2.15.93,4.39,1.39,6.7,1.39s4.64-.43,6.79-1.29c2.15-.86,4.01-2.11,5.58-3.74s2.83-3.64,3.76-6.04c.93-2.4,1.4-5.09,1.4-8.1s-.47-5.59-1.4-7.96Z"/>
  <g>
    <path class="st0" d="M189.86,168.34h2.09v16.58h10.42v1.93h-12.51v-18.51Z"/>
    <path class="st0" d="M230.87,186.85h-2.25l-2.17-4.89h-10.07l-2.19,4.89h-2.14l8.43-18.64h1.96l8.43,18.64ZM221.43,170.67l-4.23,9.44h8.43l-4.2-9.44Z"/>
    <path class="st0" d="M252.27,168.67c.74.22,1.37.53,1.9.92.53.4.93.88,1.21,1.46.28.57.42,1.21.42,1.92,0,.62-.08,1.15-.25,1.61-.17.46-.39.86-.67,1.22-.28.35-.59.65-.94.89-.34.24-.7.44-1.07.59.55.16,1.06.37,1.54.62.48.26.9.56,1.25.91.35.35.63.78.84,1.27.21.49.32,1.06.32,1.69,0,.79-.16,1.51-.48,2.14-.32.63-.77,1.17-1.36,1.6-.59.43-1.3.76-2.12.99-.83.23-1.74.34-2.75.34h-8.21v-18.51h7.86c.91,0,1.74.11,2.48.33ZM252.53,175.74c.79-.56,1.19-1.4,1.19-2.5,0-.94-.35-1.68-1.05-2.23-.7-.55-1.71-.82-3.03-.82h-5.62v6.4h5.46c1.25,0,2.27-.28,3.06-.85ZM253.54,184.12c.81-.58,1.21-1.41,1.21-2.47s-.41-1.82-1.24-2.38c-.83-.56-2.05-.84-3.67-.84h-5.83v6.56h6.2c1.41,0,2.51-.29,3.32-.88Z"/>
    <path class="st0" d="M285.79,181.23c-.46,1.15-1.1,2.17-1.93,3.05-.83.88-1.82,1.58-2.99,2.1-1.16.52-2.45.78-3.86.78s-2.69-.26-3.85-.77c-1.15-.51-2.15-1.2-2.97-2.07-.83-.87-1.47-1.89-1.92-3.04s-.67-2.38-.67-3.66.23-2.51.69-3.66c.46-1.15,1.1-2.17,1.93-3.06.83-.88,1.82-1.58,2.99-2.1,1.16-.52,2.45-.78,3.86-.78s2.69.26,3.85.77c1.15.51,2.15,1.2,2.97,2.08.83.87,1.47,1.89,1.92,3.04.45,1.15.67,2.37.67,3.66s-.23,2.51-.69,3.66ZM283.77,174.63c-.36-.93-.87-1.74-1.52-2.43-.65-.69-1.42-1.23-2.31-1.64-.89-.41-1.86-.61-2.92-.61s-2.03.2-2.92.59c-.89.4-1.65.94-2.29,1.63-.63.69-1.13,1.49-1.49,2.42-.36.93-.54,1.92-.54,2.97s.18,2.05.54,2.99c.36.93.87,1.75,1.52,2.43.65.69,1.42,1.24,2.31,1.64.89.41,1.86.61,2.92.61s2.03-.2,2.92-.59c.89-.4,1.65-.94,2.29-1.63.63-.69,1.13-1.49,1.49-2.42.36-.92.54-1.92.54-2.97s-.18-2.05-.54-2.99Z"/>
    <path class="st0" d="M311.04,186.85l-5.37-7.19h-5.29v7.19h-2.09v-18.51h7.96c1.02,0,1.94.13,2.76.4.82.27,1.52.64,2.1,1.12.58.49,1.03,1.07,1.35,1.75.32.68.48,1.43.48,2.26,0,.78-.12,1.47-.37,2.08-.25.61-.59,1.14-1.04,1.59-.45.45-.98.83-1.6,1.13-.62.3-1.29.51-2.01.63l5.68,7.56h-2.56ZM309.61,171.24c-.83-.65-2-.97-3.5-.97h-5.73v7.53h5.7c.69,0,1.33-.09,1.91-.27.58-.17,1.09-.43,1.51-.75.42-.33.76-.73.99-1.21.24-.48.36-1.02.36-1.62,0-1.17-.42-2.07-1.25-2.72Z"/>
    <path class="st0" d="M342.06,186.85h-2.25l-2.17-4.89h-10.07l-2.19,4.89h-2.14l8.43-18.64h1.96l8.43,18.64ZM332.62,170.67l-4.23,9.44h8.43l-4.2-9.44Z"/>
    <path class="st0" d="M357.71,186.85h-2.09v-16.58h-6.21v-1.93h14.52v1.93h-6.21v16.58Z"/>
    <path class="st0" d="M392.64,181.23c-.46,1.15-1.1,2.17-1.93,3.05-.83.88-1.82,1.58-2.99,2.1-1.16.52-2.45.78-3.86.78s-2.69-.26-3.85-.77c-1.15-.51-2.15-1.2-2.97-2.07-.83-.87-1.47-1.89-1.92-3.04s-.67-2.38-.67-3.66.23-2.51.69-3.66c.46-1.15,1.1-2.17,1.93-3.06.83-.88,1.82-1.58,2.99-2.1,1.16-.52,2.45-.78,3.86-.78s2.69.26,3.85.77c1.15.51,2.15,1.2,2.97,2.08.83.87,1.47,1.89,1.92,3.04s.67,2.37.67,3.66-.23,2.51-.69,3.66ZM390.62,174.63c-.36-.93-.87-1.74-1.52-2.43-.65-.69-1.42-1.23-2.31-1.64-.89-.41-1.86-.61-2.92-.61s-2.03.2-2.92.59c-.89.4-1.65.94-2.29,1.63-.63.69-1.13,1.49-1.49,2.42-.36.93-.54,1.92-.54,2.97s.18,2.05.54,2.99c.36.93.87,1.75,1.52,2.43.65.69,1.42,1.24,2.31,1.64.89.41,1.86.61,2.92.61s2.03-.2,2.92-.59c.89-.4,1.65-.94,2.29-1.63.63-.69,1.13-1.49,1.49-2.42.36-.92.54-1.92.54-2.97s-.18-2.05-.54-2.99ZM383.2,166.7l2.51-3.84,2.12.98-2.99,2.86h-1.64Z"/>
    <path class="st0" d="M417.89,186.85l-5.37-7.19h-5.29v7.19h-2.09v-18.51h7.96c1.02,0,1.94.13,2.76.4.82.27,1.52.64,2.1,1.12.58.49,1.03,1.07,1.35,1.75.32.68.48,1.43.48,2.26,0,.78-.12,1.47-.37,2.08-.25.61-.59,1.14-1.04,1.59-.45.45-.98.83-1.6,1.13-.62.3-1.29.51-2.01.63l5.68,7.56h-2.56ZM416.46,171.24c-.83-.65-2-.97-3.5-.97h-5.73v7.53h5.7c.69,0,1.33-.09,1.91-.27.58-.17,1.09-.43,1.51-.75.42-.33.76-.73.99-1.21.24-.48.36-1.02.36-1.62,0-1.17-.42-2.07-1.25-2.72Z"/>
    <path class="st0" d="M433.94,168.34v18.51h-2.09v-18.51h2.09Z"/>
    <path class="st0" d="M464.14,181.23c-.46,1.15-1.1,2.17-1.93,3.05-.83.88-1.82,1.58-2.99,2.1-1.16.52-2.45.78-3.86.78s-2.69-.26-3.85-.77c-1.15-.51-2.15-1.2-2.97-2.07-.83-.87-1.47-1.89-1.92-3.04s-.67-2.38-.67-3.66.23-2.51.69-3.66c.46-1.15,1.1-2.17,1.93-3.06.83-.88,1.82-1.58,2.99-2.1,1.16-.52,2.45-.78,3.86-.78s2.69.26,3.85.77c1.15.51,2.15,1.2,2.97,2.08.83.87,1.47,1.89,1.92,3.04s.67,2.37.67,3.66-.23,2.51-.69,3.66ZM462.11,174.63c-.36-.93-.87-1.74-1.52-2.43-.65-.69-1.42-1.23-2.31-1.64-.89-.41-1.86-.61-2.92-.61s-2.03.2-2.92.59c-.89.4-1.65.94-2.29,1.63-.63.69-1.13,1.49-1.49,2.42-.36.93-.54,1.92-.54,2.97s.18,2.05.54,2.99c.36.93.87,1.75,1.52,2.43.65.69,1.42,1.24,2.31,1.64.89.41,1.86.61,2.92.61s2.03-.2,2.92-.59c.89-.4,1.65-.94,2.29-1.63.63-.69,1.13-1.49,1.49-2.42.36-.92.54-1.92.54-2.97s-.18-2.05-.54-2.99Z"/>
    <path class="st0" d="M507.53,181.23c-.48,1.14-1.15,2.12-2.02,2.95-.87.83-1.91,1.48-3.12,1.96-1.21.48-2.53.71-3.98.71h-6.43v-18.51h6.43c1.45,0,2.77.24,3.98.7,1.21.47,2.25,1.12,3.12,1.94.87.83,1.55,1.81,2.02,2.93s.71,2.34.71,3.65-.24,2.53-.71,3.66ZM505.53,174.74c-.36-.9-.87-1.68-1.53-2.34-.66-.66-1.47-1.18-2.42-1.56-.95-.38-2.01-.57-3.17-.57h-4.34v14.65h4.34c1.16,0,2.22-.19,3.17-.56.95-.37,1.76-.89,2.42-1.55s1.17-1.43,1.53-2.31c.36-.88.54-1.84.54-2.88s-.18-1.98-.54-2.88Z"/>
    <path class="st0" d="M533.44,170.24h-11.29v6.32h10.1v1.9h-10.1v6.48h11.42v1.9h-13.51v-18.51h13.38v1.9Z"/>
    <path class="st0" d="M562.79,168.34v18.51h-2.09v-18.51h2.09Z"/>
    <path class="st0" d="M589.23,168.34h2.04v18.51h-1.67l-11.95-15.18v15.18h-2.04v-18.51h1.96l11.66,14.83v-14.83Z"/>
    <path class="st0" d="M621.28,181.23c-.46,1.15-1.1,2.17-1.93,3.05-.83.88-1.82,1.58-2.99,2.1-1.16.52-2.45.78-3.86.78s-2.69-.26-3.85-.77c-1.15-.51-2.15-1.2-2.97-2.07-.83-.87-1.47-1.89-1.92-3.04s-.67-2.38-.67-3.66.23-2.51.69-3.66c.46-1.15,1.1-2.17,1.93-3.06.83-.88,1.82-1.58,2.99-2.1,1.16-.52,2.45-.78,3.86-.78s2.69.26,3.85.77c1.15.51,2.15,1.2,2.97,2.08.83.87,1.47,1.89,1.92,3.04.45,1.15.67,2.37.67,3.66s-.23,2.51-.69,3.66ZM619.25,174.63c-.36-.93-.87-1.74-1.52-2.43-.65-.69-1.42-1.23-2.31-1.64-.89-.41-1.86-.61-2.92-.61s-2.03.2-2.92.59c-.89.4-1.65.94-2.29,1.63-.63.69-1.13,1.49-1.49,2.42-.36.93-.54,1.92-.54,2.97s.18,2.05.54,2.99c.36.93.87,1.75,1.52,2.43.65.69,1.42,1.24,2.31,1.64.89.41,1.86.61,2.92.61s2.03-.2,2.92-.59c.89-.4,1.65-.94,2.29-1.63.63-.69,1.13-1.49,1.49-2.42.36-.92.54-1.92.54-2.97s-.18-2.05-.54-2.99Z"/>
    <path class="st0" d="M646.63,168.34h2.25l-7.96,18.64h-1.85l-7.96-18.64h2.33l6.58,15.95,6.61-15.95Z"/>
    <path class="st0" d="M674.53,186.85h-2.25l-2.17-4.89h-10.07l-2.19,4.89h-2.14l8.43-18.64h1.96l8.43,18.64ZM665.09,170.67l-4.23,9.44h8.43l-4.2-9.44Z"/>
    <path class="st0" d="M689.55,186.04c-.99-.54-1.83-1.22-2.54-2.06-.71-.84-1.26-1.8-1.65-2.88-.4-1.08-.59-2.24-.59-3.48,0-1.32.23-2.56.7-3.73.47-1.16,1.11-2.18,1.94-3.06.83-.87,1.82-1.56,2.96-2.06,1.15-.5,2.4-.75,3.75-.75.85,0,1.61.07,2.29.21.68.14,1.31.34,1.89.59.58.26,1.12.56,1.61.92.49.36.97.76,1.43,1.2l-1.43,1.53c-.79-.74-1.64-1.35-2.55-1.83-.91-.48-2-.71-3.27-.71-1.02,0-1.97.19-2.84.58-.87.39-1.63.93-2.27,1.61-.64.69-1.15,1.49-1.51,2.42-.36.92-.54,1.93-.54,3s.18,2.08.54,3.02c.36.93.86,1.74,1.51,2.43.64.69,1.4,1.23,2.27,1.63.87.4,1.82.59,2.84.59,1.27,0,2.36-.23,3.28-.7.92-.47,1.82-1.12,2.7-1.97l1.38,1.35c-.46.48-.93.9-1.43,1.28-.49.38-1.02.71-1.59.99-.56.28-1.17.51-1.82.67-.65.17-1.37.27-2.14.3l-1.75,3.78-1.98-.9,2.04-2.96c-1.16-.16-2.24-.51-3.23-1.05Z"/>
    <path class="st0" d="M729.74,186.85h-2.25l-2.17-4.89h-10.07l-2.19,4.89h-2.14l8.43-18.64h1.96l8.43,18.64ZM723.68,166.07c-.39.42-.9.64-1.53.64-.3,0-.61-.05-.93-.15-.32-.1-.63-.22-.95-.35-.32-.13-.62-.25-.9-.36-.28-.11-.54-.17-.77-.17-.35,0-.62.09-.81.28-.18.19-.37.52-.57.98l-1.24-.34c.26-1.01.59-1.72.98-2.14.39-.42.9-.64,1.53-.64.3,0,.61.06.93.17.32.11.63.23.95.36.32.13.62.25.9.35s.54.15.77.15c.35,0,.62-.1.81-.29.18-.19.37-.52.57-.98l1.24.34c-.26,1.01-.59,1.72-.98,2.14ZM720.3,170.67l-4.23,9.44h8.43l-4.2-9.44Z"/>
    <path class="st0" d="M758.16,181.23c-.46,1.15-1.1,2.17-1.93,3.05-.83.88-1.82,1.58-2.99,2.1-1.16.52-2.45.78-3.86.78s-2.69-.26-3.85-.77c-1.15-.51-2.15-1.2-2.97-2.07-.83-.87-1.47-1.89-1.92-3.04s-.67-2.38-.67-3.66.23-2.51.69-3.66c.46-1.15,1.1-2.17,1.93-3.06.83-.88,1.82-1.58,2.99-2.1,1.16-.52,2.45-.78,3.86-.78s2.69.26,3.85.77c1.15.51,2.15,1.2,2.97,2.08.83.87,1.47,1.89,1.92,3.04s.67,2.37.67,3.66-.23,2.51-.69,3.66ZM756.14,174.63c-.36-.93-.87-1.74-1.52-2.43-.65-.69-1.42-1.23-2.31-1.64-.89-.41-1.86-.61-2.92-.61s-2.03.2-2.92.59c-.89.4-1.65.94-2.29,1.63-.63.69-1.13,1.49-1.49,2.42-.36.93-.54,1.92-.54,2.97s.18,2.05.54,2.99c.36.93.87,1.75,1.52,2.43.65.69,1.42,1.24,2.31,1.64.89.41,1.86.61,2.92.61s2.03-.2,2.92-.59c.89-.4,1.65-.94,2.29-1.63.63-.69,1.13-1.49,1.49-2.42.36-.92.54-1.92.54-2.97s-.18-2.05-.54-2.99Z"/>
  </g>
</svg>