<?xml version="1.0" encoding="UTF-8"?>
<svg id="Camada_1" xmlns="http://www.w3.org/2000/svg" version="1.1" xmlns:xlink="http://www.w3.org/1999/xlink" viewBox="0 0 800 115.5">
  <!-- Generator: Adobe Illustrator 29.7.1, SVG Export Plug-In . SVG Version: 2.1.1 Build 8)  -->
  <defs>
    <style>
      .st0, .st1 {
        fill: #fff;
      }

      .st2 {
        fill: url(#Gradiente_sem_nome_301);
      }

      .st3 {
        fill: url(#Gradiente_sem_nome_306);
      }

      .st1 {
        fill-rule: evenodd;
      }

      .st4 {
        fill: url(#Gradiente_sem_nome_302);
      }

      .st5 {
        fill: url(#Gradiente_sem_nome_304);
      }

      .st6 {
        fill: url(#Gradiente_sem_nome_305);
      }

      .st7 {
        fill: url(#Gradiente_sem_nome_30);
      }

      .st8 {
        fill: url(#Gradiente_sem_nome_303);
      }
    </style>
    <symbol id="MPAC-H" viewBox="0 0 236 63.97">
      <g>
        <path class="st0" d="M8.94,63.71v-11.86l-3.05,11.86h-1.36l-2.92-11.86v11.86H.25v-12.58h2.35l2.63,10.73,2.76-10.73h2.32v12.58h-1.37ZM12.42,51.12h1.35v1.71h-1.35v-1.71ZM12.42,54.3h1.35v9.4h-1.35v-9.4ZM15.75,63.71v-9.4h1.23v1.17c.23-.46.54-.8.93-1.03.39-.23.86-.34,1.42-.34.82,0,1.41.21,1.76.63.35.42.53,1.14.53,2.16v6.81h-1.32v-6.91c0-.51-.11-.89-.32-1.14-.22-.25-.55-.38-.99-.38-.59,0-1.05.18-1.39.56-.34.37-.52.87-.52,1.5v6.37h-1.32ZM23.56,51.12h1.35v1.71h-1.35v-1.71ZM23.56,54.3h1.35v9.4h-1.35v-9.4ZM26.64,60.88h1.3s0,.03,0,.05c-.02.12-.03.21-.03.27,0,.51.14.9.44,1.17.29.27.71.4,1.26.4.5,0,.9-.14,1.19-.41.29-.27.44-.64.44-1.11,0-.74-.57-1.31-1.7-1.7h-.03c-1.14-.4-1.87-.8-2.21-1.19-.34-.39-.51-.96-.51-1.71,0-.82.24-1.46.72-1.92s1.15-.69,2-.69c.91,0,1.6.22,2.06.66.46.44.69,1.09.69,1.95v.13h-1.24c-.03-.57-.16-.98-.38-1.24-.23-.26-.58-.39-1.06-.39-.51,0-.89.12-1.15.36s-.39.61-.39,1.08c0,.21.03.4.1.57.07.17.17.3.3.41.24.21.71.43,1.42.65.38.12.67.22.88.3.64.25,1.1.57,1.38.95.27.38.41.89.41,1.53,0,.94-.27,1.67-.81,2.18-.54.51-1.31.77-2.31.77-.91,0-1.61-.24-2.08-.73-.47-.49-.7-1.21-.7-2.16v-.19ZM35.78,61.76c0,.39.07.65.21.77.14.12.48.18,1.01.18.07,0,.13,0,.17,0,.05,0,.08,0,.12-.01v1.15c-.07,0-.18.01-.32.02-.34.02-.55.03-.64.03-.62,0-1.08-.12-1.38-.37-.3-.25-.45-.62-.45-1.12v-7.01h-1.3v-1.09h1.3v-2.51h1.28v2.51h1.52v1.09h-1.52v6.37ZM39.46,57.99h3.18v-.25c0-.86-.12-1.52-.38-1.96-.25-.44-.63-.66-1.13-.66-.56,0-.98.23-1.26.71-.28.47-.41,1.19-.41,2.16M42.66,60.53h1.28c-.01,1.11-.26,1.96-.76,2.55-.49.59-1.2.88-2.12.88-1.01,0-1.75-.4-2.23-1.19-.48-.79-.72-2.01-.72-3.67,0-1.75.24-3.04.72-3.85.48-.81,1.23-1.22,2.26-1.22.97,0,1.69.35,2.17,1.04.48.69.71,1.75.71,3.16,0,.22,0,.39,0,.51,0,.11,0,.22-.01.31h-4.5v.42c0,1.18.14,2.04.41,2.57.27.54.7.81,1.29.81.46,0,.82-.2,1.09-.61.27-.41.4-.96.4-1.66v-.06ZM40.28,53.3l1.38-2.22h1.45l-2.01,2.22h-.82ZM45.71,63.71v-9.4h1.21v1.54c.19-.55.47-.98.86-1.29.38-.31.82-.47,1.31-.47.15,0,.26,0,.34,0,.08,0,.16.01.22.03v1.41c-.07-.04-.15-.07-.23-.09-.09-.02-.18-.03-.28-.03-.67,0-1.19.22-1.57.67-.37.45-.56,1.07-.56,1.87v5.76h-1.3ZM50.54,51.12h1.35v1.71h-1.35v-1.71ZM50.54,54.3h1.35v9.4h-1.35v-9.4ZM53.6,59.01c0-1.69.27-2.94.81-3.75.54-.81,1.37-1.22,2.48-1.22s1.96.4,2.49,1.21c.54.81.8,2.06.8,3.76s-.27,2.96-.8,3.76c-.53.8-1.36,1.2-2.49,1.2s-1.97-.4-2.5-1.19c-.52-.79-.79-2.05-.79-3.76M55,59.01c0,1.41.14,2.4.43,2.97.29.57.77.86,1.45.86s1.15-.29,1.44-.88c.29-.59.44-1.57.44-2.95s-.14-2.38-.44-2.96c-.29-.57-.77-.86-1.44-.86s-1.16.28-1.45.85c-.29.57-.44,1.56-.44,2.96M67.56,57.14h1.84c.85,0,1.47-.2,1.87-.61.4-.41.6-1.05.6-1.92,0-.8-.2-1.38-.6-1.74-.4-.36-1.05-.54-1.95-.54h-1.75v4.8ZM66.17,63.71v-12.58h3.21c1.37,0,2.36.28,2.99.84.63.56.94,1.45.94,2.67s-.33,2.19-.98,2.82c-.66.64-1.62.96-2.89.96h-1.87v5.29h-1.4ZM79.42,63.71v-1.22c-.18.47-.48.84-.88,1.09-.4.26-.89.38-1.45.38-.78,0-1.35-.19-1.71-.58-.36-.39-.54-1-.54-1.85v-7.23h1.37v7.26c0,.39.1.69.29.9.19.21.46.32.81.32.63,0,1.12-.19,1.47-.59.35-.39.53-.94.53-1.65v-6.24h1.33v9.4h-1.21ZM76.76,53.3l1.38-2.22h1.45l-2.01,2.22h-.82ZM83.93,58.93c0,1.36.14,2.33.43,2.91.29.58.75.87,1.41.87.61,0,1.05-.3,1.32-.91.27-.6.41-1.59.41-2.97,0-1.23-.14-2.13-.44-2.71-.29-.58-.74-.87-1.34-.87-.64,0-1.1.27-1.38.82-.27.54-.41,1.5-.41,2.86M82.72,63.71v-12.58h1.3v4.15c.11-.35.36-.64.73-.86.37-.22.81-.33,1.3-.33.91,0,1.62.4,2.12,1.21.5.81.76,1.94.76,3.41,0,1.69-.25,2.98-.75,3.86-.5.88-1.23,1.32-2.2,1.32-.5,0-.93-.12-1.31-.38-.37-.25-.62-.58-.74-1v1.19h-1.21ZM90.66,51.12h1.3v12.58h-1.3v-12.58ZM93.92,51.12h1.35v1.71h-1.35v-1.71ZM93.92,54.3h1.35v9.4h-1.35v-9.4ZM101.78,60.4h1.28c0,1.13-.26,2.01-.78,2.63-.52.62-1.25.93-2.2.93-1.04,0-1.81-.41-2.31-1.23-.5-.82-.75-2.09-.75-3.79s.26-2.86.78-3.67c.52-.81,1.31-1.21,2.37-1.21.87,0,1.56.27,2.07.81.51.53.76,1.27.76,2.19v.2h-1.28c-.03-.66-.17-1.16-.42-1.5-.26-.34-.62-.52-1.08-.52-.64,0-1.1.28-1.37.85-.27.57-.41,1.54-.41,2.91s.14,2.36.41,2.94c.28.57.74.86,1.38.86.49,0,.87-.2,1.13-.61.26-.41.41-1,.42-1.77M104.65,59.01c0-1.69.27-2.94.81-3.75.54-.81,1.37-1.22,2.48-1.22s1.96.4,2.49,1.21c.54.81.8,2.06.8,3.76s-.27,2.96-.8,3.76c-.53.8-1.36,1.2-2.49,1.2s-1.97-.4-2.5-1.19c-.53-.79-.79-2.05-.79-3.76M106.04,59.01c0,1.41.14,2.4.43,2.97.29.57.77.86,1.45.86s1.15-.29,1.44-.88c.29-.59.44-1.57.44-2.95s-.14-2.38-.44-2.96c-.29-.57-.77-.86-1.44-.86s-1.16.28-1.45.85c-.29.57-.44,1.56-.44,2.96M121.83,58.93c0-1.37-.13-2.33-.4-2.87-.27-.54-.72-.81-1.37-.81s-1.07.29-1.36.87c-.29.58-.44,1.48-.44,2.7,0,1.36.14,2.35.42,2.96.28.61.72.92,1.33.92.65,0,1.11-.29,1.4-.86.28-.58.42-1.55.42-2.92M123.06,63.71h-1.23v-1.19c-.12.41-.36.74-.73,1-.37.25-.8.38-1.3.38-.97,0-1.7-.44-2.21-1.33-.51-.88-.76-2.17-.76-3.86,0-1.46.26-2.6.76-3.41.51-.81,1.22-1.21,2.13-1.21.49,0,.93.11,1.3.33.37.22.61.51.71.86v-4.15h1.32v12.58ZM124.78,58.83c0-1.75.28-3.05.84-3.89.56-.84,1.42-1.27,2.57-1.27s2.03.42,2.58,1.25c.55.84.83,2.14.83,3.9s-.28,3.07-.83,3.89c-.55.83-1.41,1.24-2.59,1.24s-2.04-.41-2.59-1.23c-.54-.82-.82-2.12-.82-3.9M126.23,58.84c0,1.46.15,2.48.45,3.08.3.6.8.89,1.51.89s1.2-.3,1.5-.91c.3-.61.45-1.63.45-3.06s-.15-2.47-.45-3.07c-.3-.6-.8-.89-1.5-.89s-1.2.29-1.5.88c-.3.59-.45,1.62-.45,3.07M137.81,63.71v-13.05h6.44v1.36h-5.01v4.19h4.68v1.32h-4.68v4.8h5.06v1.37h-6.49ZM145.89,60.77h1.35s0,.03,0,.05c-.02.12-.03.22-.03.28,0,.53.15.94.45,1.21.3.28.74.42,1.31.42.52,0,.93-.14,1.23-.43.3-.28.45-.66.45-1.15,0-.77-.59-1.36-1.76-1.76h-.03c-1.18-.42-1.94-.83-2.29-1.24-.35-.41-.52-1-.52-1.77,0-.85.25-1.52.74-1.99.5-.48,1.19-.71,2.08-.71.94,0,1.65.23,2.13.68.48.46.72,1.13.72,2.02v.14h-1.29c-.03-.59-.16-1.02-.4-1.28-.24-.27-.6-.4-1.1-.4-.53,0-.93.12-1.19.38-.27.25-.4.63-.4,1.12,0,.22.04.42.11.59.07.17.17.32.31.42.25.21.74.44,1.47.68.39.12.7.23.91.31.67.26,1.14.59,1.43.99.28.4.43.92.43,1.58,0,.98-.28,1.73-.84,2.26-.56.53-1.35.79-2.39.79-.95,0-1.66-.25-2.15-.76-.49-.51-.73-1.25-.73-2.24v-.2ZM155.36,61.69c0,.41.07.67.22.8.15.13.49.19,1.05.19.07,0,.13,0,.18,0,.05,0,.09,0,.12-.01v1.19c-.08,0-.19.01-.33.02-.35.02-.57.03-.67.03-.64,0-1.12-.13-1.43-.38-.31-.26-.47-.65-.47-1.16v-7.27h-1.35v-1.13h1.35v-2.6h1.32v2.6h1.58v1.13h-1.58v6.6ZM162.22,58.45c-.21.24-.68.49-1.42.75-.06.02-.11.04-.14.05-.63.22-1.04.47-1.23.75-.19.28-.29.68-.29,1.23,0,.49.11.86.32,1.13.21.27.52.4.9.4.56,0,1.01-.21,1.34-.64.33-.43.5-1,.5-1.73v-1.93ZM164.36,63.72c-.17.03-.32.05-.44.06-.13.01-.24.02-.35.02-.38,0-.68-.12-.9-.36-.22-.24-.34-.59-.35-1.03-.21.5-.51.88-.9,1.14-.39.27-.86.4-1.4.4-.7,0-1.25-.24-1.64-.71-.39-.47-.59-1.14-.59-2s.18-1.48.54-1.92c.36-.44,1.14-.86,2.35-1.27h.03c.99-.34,1.48-.73,1.48-1.18v-.9c0-.4-.11-.69-.34-.88-.23-.18-.59-.28-1.09-.28s-.84.13-1.08.38c-.24.25-.35.64-.35,1.17v.17h-1.27c.02-.99.25-1.72.71-2.18.46-.46,1.17-.68,2.16-.68.92,0,1.59.21,2.02.63.42.42.64,1.09.64,2v5.7c0,.25.05.44.14.55.09.11.24.16.44.16.04,0,.1,0,.18-.03.01,0,.02,0,.03,0v1.04ZM170.66,58.76c0-1.42-.14-2.41-.42-2.97-.28-.56-.75-.84-1.42-.84s-1.1.3-1.41.91c-.3.6-.46,1.54-.46,2.8,0,1.41.14,2.43.43,3.07.29.63.75.95,1.38.95.67,0,1.15-.3,1.45-.9.29-.6.44-1.61.44-3.02M171.93,63.71h-1.27v-1.23c-.12.43-.38.77-.76,1.03-.38.26-.83.39-1.35.39-1,0-1.76-.46-2.29-1.38-.53-.92-.79-2.25-.79-4,0-1.52.26-2.7.79-3.54.53-.84,1.27-1.26,2.21-1.26.51,0,.96.12,1.35.35.39.23.64.53.74.89v-4.31h1.37v13.05ZM173.69,58.83c0-1.75.28-3.05.84-3.89.56-.84,1.42-1.27,2.57-1.27s2.03.42,2.58,1.25c.56.84.83,2.14.83,3.9s-.28,3.07-.82,3.89c-.55.83-1.41,1.24-2.59,1.24s-2.04-.41-2.59-1.23c-.54-.82-.82-2.12-.82-3.9M175.14,58.84c0,1.46.15,2.48.45,3.08.3.6.8.89,1.51.89s1.2-.3,1.5-.91c.3-.61.45-1.63.45-3.06s-.15-2.47-.45-3.07c-.3-.6-.8-.89-1.5-.89s-1.2.29-1.5.88c-.3.59-.45,1.62-.45,3.07M191.51,58.76c0-1.42-.14-2.41-.42-2.97-.28-.56-.75-.84-1.42-.84s-1.1.3-1.41.91c-.3.6-.45,1.54-.45,2.8,0,1.41.14,2.43.43,3.07.29.63.75.95,1.38.95.67,0,1.15-.3,1.45-.9.29-.6.44-1.61.44-3.02M192.78,63.71h-1.27v-1.23c-.12.43-.38.77-.76,1.03-.38.26-.83.39-1.35.39-1,0-1.76-.46-2.29-1.38-.53-.92-.79-2.25-.79-4,0-1.52.26-2.7.79-3.54.53-.84,1.27-1.26,2.21-1.26.51,0,.96.12,1.35.35.39.23.64.53.74.89v-4.31h1.37v13.05ZM194.54,58.83c0-1.75.28-3.05.84-3.89.56-.84,1.42-1.27,2.57-1.27s2.03.42,2.58,1.25c.56.84.83,2.14.83,3.9s-.28,3.07-.83,3.89c-.55.83-1.41,1.24-2.59,1.24s-2.04-.41-2.59-1.23c-.54-.82-.82-2.12-.82-3.9M195.99,58.84c0,1.46.15,2.48.45,3.08.3.6.8.89,1.51.89s1.2-.3,1.5-.91c.3-.61.45-1.63.45-3.06s-.15-2.47-.45-3.07c-.3-.6-.8-.89-1.5-.89s-1.2.29-1.5.88c-.3.59-.45,1.62-.45,3.07M209.42,58.62h3.46l-1.73-6.83-1.73,6.83ZM206.68,63.71l3.54-13.05h1.85l3.59,13.05h-1.47l-.98-3.76h-4.11l-.94,3.76h-1.47ZM221.64,60.27h1.33c0,1.17-.27,2.08-.81,2.73-.54.64-1.3.97-2.28.97-1.08,0-1.88-.43-2.4-1.28-.52-.85-.78-2.16-.78-3.93s.27-2.97.81-3.81c.54-.84,1.36-1.26,2.45-1.26.91,0,1.62.28,2.15.84.53.56.79,1.31.79,2.28v.2h-1.32c-.03-.68-.18-1.2-.44-1.56-.26-.36-.64-.53-1.12-.53-.66,0-1.14.3-1.42.88-.29.59-.43,1.59-.43,3.01s.14,2.45.43,3.04c.29.6.76.89,1.43.89.51,0,.9-.21,1.17-.64.27-.42.42-1.03.44-1.84M224.88,63.71v-9.75h1.26v1.59c.2-.57.49-1.02.89-1.34.39-.32.85-.48,1.36-.48.15,0,.27,0,.35,0,.08,0,.16.01.23.03v1.46c-.07-.04-.15-.07-.24-.09-.09-.02-.18-.03-.29-.03-.7,0-1.24.23-1.62.69-.39.46-.58,1.11-.58,1.94v5.97h-1.35ZM231.03,57.78h3.3v-.26c0-.9-.13-1.57-.39-2.03-.26-.45-.65-.68-1.18-.68-.58,0-1.02.24-1.3.73-.28.49-.43,1.24-.43,2.24M234.34,60.41h1.33c-.01,1.15-.27,2.03-.79,2.64-.51.61-1.25.92-2.2.92-1.04,0-1.82-.41-2.31-1.23-.5-.82-.75-2.09-.75-3.8,0-1.82.25-3.15.75-4,.5-.84,1.28-1.27,2.35-1.27,1.01,0,1.75.36,2.25,1.07s.74,1.81.74,3.28c0,.23,0,.41,0,.53,0,.12,0,.23-.01.32h-4.66v.44c0,1.22.14,2.11.42,2.67.28.56.73.84,1.34.84.48,0,.85-.21,1.13-.63.28-.42.42-.99.42-1.72v-.07Z"/>
        <path class="st1" d="M53.35,13.93v15.29c1.17.91,2.27,1.9,3.32,2.95,1.28,1.29,2.47,2.67,3.55,4.15.64.88,1.25,1.79,1.82,2.73V4.14l-.14.25c-.61,1.05-1.35,2.03-2.16,3.09-.48.63-.97,1.23-1.47,1.8-.5.57-1.03,1.14-1.59,1.7h0s0,0,0,0c-1.04,1.05-2.15,2.03-3.32,2.95"/>
        <path class="st1" d="M0,2.9c.64,1.16,1.34,2.28,2.09,3.35,1.19,1.69,2.52,3.28,3.97,4.73.83.84,1.71,1.64,2.62,2.39v16.41c-.91.75-1.79,1.55-2.62,2.39l-.03.03c-1.44,1.45-2.76,3.02-3.94,4.7C1.34,37.98.64,39.1,0,40.25V2.9Z"/>
        <path class="st0" d="M79.37,42.58V1.02h14.58l5.44,20.23c.49,1.79.93,3.53,1.32,5.21.39,1.69.74,3.32,1.03,4.92.35-1.7.76-3.47,1.21-5.32.45-1.86.97-3.84,1.54-5.97l5.14-19.07h14.55v41.56h-9.66v-18.43c0-1.3.03-3.12.1-5.46.07-2.34.16-5.05.3-8.11l-7.95,32h-10.5l-7.77-32c.13,3.69.23,7,.31,9.95.08,2.94.11,5.24.11,6.9v15.15h-9.75Z"/>
        <path class="st0" d="M139.16,19.36h7.03c1.91,0,3.32-.4,4.23-1.22.91-.82,1.36-2.09,1.36-3.8s-.47-2.9-1.42-3.72c-.95-.82-2.38-1.22-4.28-1.22h-6.91v9.96ZM128.53,42.58V1.02h18.93c4.79,0,8.44,1.12,10.95,3.34,2.51,2.23,3.77,5.45,3.77,9.66,0,4.42-1.24,7.81-3.71,10.17-2.47,2.36-6.03,3.54-10.67,3.54h-8.63v14.84h-10.64Z"/>
        <path class="st0" d="M173.33,26.35h9.05l-4.61-14.33-4.44,14.33ZM172.35,1.02h11.57l14.6,41.56h-11.37l-2.53-7.62h-13.81l-2.37,7.62h-10.97L172.35,1.02Z"/>
        <path class="st0" d="M235.88,28.02c-.71,4.99-2.67,8.85-5.86,11.6-3.19,2.75-7.31,4.12-12.36,4.12-6.05,0-10.93-1.98-14.63-5.95-3.71-3.97-5.56-9.19-5.56-15.66s1.89-12.11,5.65-16.11c3.78-4.01,8.83-6.01,15.15-6.01,5.01,0,9.12,1.33,12.29,3.98,3.17,2.65,4.98,6.27,5.43,10.87h-9.94c-.49-1.99-1.41-3.5-2.77-4.5-1.35-1.01-3.13-1.51-5.35-1.51-2.95,0-5.3,1.17-7.02,3.52-1.72,2.35-2.59,5.57-2.59,9.65s.81,7.22,2.44,9.47c1.63,2.24,3.92,3.37,6.88,3.37,2.38,0,4.28-.59,5.71-1.75,1.44-1.17,2.33-2.86,2.68-5.08h9.82Z"/>
        <rect class="st0" x="27.01" y="34.33" width="7.82" height="7.86"/>
        <path class="st0" d="M57.41,8.27c.5-.58.98-1.16,1.43-1.74.78-1.02,1.5-1.97,2.08-2.97.46-.8.84-1.64,1.11-2.6h-7.83c-.46.67-.95,1.32-1.46,1.95-.59.72-1.2,1.39-1.83,2.03-2.57,2.58-5.65,4.67-9.07,6.09-3.29,1.37-6.9,2.13-10.67,2.13s-7.39-.76-10.68-2.13c-3.42-1.42-6.5-3.51-9.07-6.09h0s0,0,0,0c-.64-.64-1.25-1.32-1.83-2.03-.51-.63-1-1.28-1.46-1.95H0c.77,1.53,1.65,2.99,2.63,4.38,1.15,1.63,2.44,3.17,3.84,4.58,3.22,3.24,7.07,5.85,11.34,7.63,4.11,1.71,8.63,2.66,13.36,2.66s9.25-.95,13.36-2.66c4.27-1.78,8.12-4.39,11.34-7.63h0c.52-.52,1.04-1.08,1.54-1.65"/>
        <path class="st0" d="M57.41,33.18c.5.49.98.99,1.43,1.49.78.88,1.5,1.69,2.08,2.55.46.69.84,1.41,1.11,2.23h-7.83c-.46-.58-.95-1.13-1.46-1.67-.59-.61-1.2-1.2-1.83-1.74-2.57-2.22-5.65-4-9.07-5.23-3.29-1.18-6.9-1.82-10.67-1.82s-7.39.65-10.68,1.82c-3.42,1.22-6.5,3.01-9.07,5.23h0s0,0,0,0c-.64.55-1.25,1.13-1.83,1.74-.51.54-1,1.1-1.46,1.67H0c.77-1.31,1.65-2.56,2.63-3.75,1.15-1.4,2.44-2.72,3.84-3.93,3.22-2.78,7.07-5.02,11.34-6.54,4.11-1.47,8.63-2.28,13.36-2.28s9.25.81,13.36,2.28c4.27,1.53,8.12,3.76,11.34,6.54h0c.52.45,1.04.92,1.54,1.42"/>
      </g>
    </symbol>
    <linearGradient id="Gradiente_sem_nome_30" data-name="Gradiente sem nome 30" x1="405.71" y1="45.44" x2="427.6" y2="45.44" gradientUnits="userSpaceOnUse">
      <stop offset="0" stop-color="#e1e040"/>
      <stop offset="1" stop-color="#9fc52c"/>
    </linearGradient>
    <linearGradient id="Gradiente_sem_nome_301" data-name="Gradiente sem nome 30" x1="401.84" y1="54.55" x2="423.71" y2="54.55" xlink:href="#Gradiente_sem_nome_30"/>
    <linearGradient id="Gradiente_sem_nome_302" data-name="Gradiente sem nome 30" x1="412.27" y1="37.92" x2="432.6" y2="37.92" xlink:href="#Gradiente_sem_nome_30"/>
    <linearGradient id="Gradiente_sem_nome_303" data-name="Gradiente sem nome 30" x1="677.73" y1="38.39" x2="752.16" y2="76.35" xlink:href="#Gradiente_sem_nome_30"/>
    <linearGradient id="Gradiente_sem_nome_304" data-name="Gradiente sem nome 30" x1="684.15" y1="25.8" x2="758.58" y2="63.76" xlink:href="#Gradiente_sem_nome_30"/>
    <linearGradient id="Gradiente_sem_nome_305" data-name="Gradiente sem nome 30" x1="691.51" y1="11.36" x2="765.95" y2="49.32" xlink:href="#Gradiente_sem_nome_30"/>
    <linearGradient id="Gradiente_sem_nome_306" data-name="Gradiente sem nome 30" x1="336.19" y1="7.12" x2="352.62" y2="113.3" xlink:href="#Gradiente_sem_nome_30"/>
  </defs>
  <g>
    <g>
      <path class="st0" d="M427.6,71.91c.06.34.02.73-.12,1.08-.15.34-.37.66-.63.93-.52.54-1.16.94-1.82,1.24-.67.3-1.37.51-2.08.65-.71.13-1.43.19-2.16.2-.72,0-1.44-.07-2.16-.2-.71-.14-1.41-.35-2.08-.65-.66-.3-1.31-.7-1.82-1.24-.26-.27-.48-.59-.63-.93-.14-.35-.19-.73-.12-1.08.06.17.09.33.18.48.06.15.17.28.27.4.22.24.45.45.73.6.54.33,1.15.57,1.77.74.62.17,1.26.3,1.91.37.65.07,1.3.11,1.95.11.65,0,1.3-.04,1.95-.11.65-.08,1.28-.2,1.91-.37.62-.17,1.23-.41,1.77-.74.28-.16.51-.37.73-.61.21-.24.36-.54.45-.88Z"/>
      <path class="st0" d="M443.13,87.47l-1.78-7.46c-.39-2.9-2.52-5.17-5.28-5.82l7.24-24.93c2.37-8.15.82-17.07-4.13-23.84-4.37-5.98-10.86-9.63-17.94-10.12-.16.82-.3,1.72-.42,2.67,6.38.37,12.25,3.64,16.19,9.04,4.46,6.11,5.85,14.14,3.71,21.5l-8.43,29.05c-.93,3.2-3.67,5.35-6.82,5.35h-11.83c-3.15,0-5.89-2.15-6.82-5.35l-8.43-29.05c-2.14-7.36-.75-15.4,3.71-21.5,2.4-3.28,5.5-5.77,9.01-7.31.42-1.2.91-2.34,1.42-3.4-4.95,1.53-9.36,4.69-12.6,9.12-4.95,6.78-6.49,15.69-4.13,23.84l7.25,24.96c-2.7.68-4.77,2.93-5.16,5.79l-1.77,7.43c-2.24.44-3.93,2.41-3.93,4.77v11.65c0,.72.59,1.31,1.31,1.31s1.31-.59,1.31-1.31v-11.65c0-1.17.9-2.13,2.04-2.23,1.65.91,8.97,4.52,21.47,4.76,0,.03,0,.05,0,.07v9.05c0,.72.59,1.31,1.31,1.31s1.31-.59,1.31-1.31v-9.05s0-.05,0-.07c12.44-.24,19.75-3.81,21.45-4.74,1.09.15,1.93,1.09,1.93,2.22v11.65c0,.72.59,1.31,1.31,1.31s1.31-.59,1.31-1.31v-11.65c0-2.32-1.63-4.26-3.8-4.74ZM419.62,92.13c-11.41,0-18.61-3-20.94-4.15l1.77-7.42.03-.14c.23-1.83,1.56-3.27,3.3-3.67l.46,1.57c1.26,4.36,5.04,7.29,9.4,7.29h11.83c4.36,0,8.14-2.93,9.4-7.29l.46-1.6c1.79.36,3.18,1.83,3.42,3.7l1.8,7.57c-2.33,1.15-9.52,4.15-20.93,4.15Z"/>
      <path class="st7" d="M409.81,21.72c-.13.22-11.72,19.11,4.65,28.61,13.73,7.97,12.07,18.62,12.04,18.82,3.9-13.01-3.19-20.21-11.15-26.29-7.92-6.05-5.56-20.98-5.54-21.14Z"/>
      <path class="st2" d="M403.27,35.49c-.1.2-6.38,16.72,8.25,23.22,12.27,5.45,11.78,14.73,11.77,14.91,2.17-11.53-4.32-17.22-11.67-21.4-8.3-4.72-8.36-16.58-8.35-16.73Z"/>
      <path class="st4" d="M419.93,9.83c-.19.21-16.96,18.47-.24,32.67,14.03,11.91,10.09,23.3,10.02,23.51,6.92-13.49.27-23.05-7.58-31.57-7.81-8.47-2.26-24.43-2.2-24.61Z"/>
    </g>
    <path class="st0" d="M488.88,59.78c-.69,1.49-1.66,2.73-2.9,3.74-1.24,1.01-2.72,1.78-4.44,2.31-1.72.53-3.62.8-5.71.8-2.94,0-5.82-.5-8.64-1.51-2.83-1.01-5.39-2.56-7.7-4.65l5.01-6c1.76,1.43,3.57,2.57,5.42,3.41,1.85.85,3.88,1.26,6.08,1.26,1.76,0,3.13-.32,4.1-.96.97-.64,1.46-1.53,1.46-2.67v-.11c0-.55-.1-1.03-.3-1.46-.2-.42-.59-.82-1.16-1.18-.57-.37-1.36-.73-2.37-1.1-1.01-.37-2.33-.75-3.95-1.15-1.95-.48-3.71-1.01-5.3-1.6-1.58-.59-2.92-1.31-4.03-2.17-1.1-.86-1.96-1.93-2.57-3.22-.61-1.28-.91-2.88-.91-4.79v-.11c0-1.76.33-3.35.98-4.76.66-1.41,1.58-2.63,2.76-3.66,1.18-1.03,2.6-1.82,4.24-2.37,1.64-.55,3.46-.83,5.44-.83,2.82,0,5.42.42,7.79,1.26,2.37.85,4.54,2.06,6.52,3.63l-4.4,6.38c-1.73-1.17-3.41-2.1-5.06-2.78-1.65-.68-3.3-1.02-4.95-1.02s-2.89.32-3.72.96-1.24,1.44-1.24,2.39v.11c0,.62.12,1.16.36,1.62.24.46.67.87,1.3,1.24.63.37,1.48.72,2.57,1.05,1.08.33,2.46.72,4.11,1.15,1.95.51,3.69,1.09,5.21,1.73,1.53.64,2.81,1.41,3.86,2.31s1.84,1.95,2.37,3.16c.53,1.21.8,2.66.8,4.35v.11c0,1.91-.35,3.61-1.04,5.09Z"/>
    <path class="st0" d="M523.89,53.21c-.02.29-.05.64-.08,1.04h-20.53c.4,1.91,1.24,3.35,2.5,4.32,1.27.97,2.84,1.46,4.71,1.46,1.39,0,2.64-.24,3.74-.72,1.1-.48,2.24-1.25,3.41-2.31l4.79,4.24c-1.39,1.72-3.08,3.07-5.06,4.05-1.98.97-4.31,1.46-6.99,1.46-2.2,0-4.25-.37-6.14-1.1-1.89-.73-3.52-1.78-4.9-3.14-1.38-1.36-2.45-2.96-3.22-4.82-.77-1.85-1.15-3.92-1.15-6.19v-.11c0-2.09.36-4.07,1.07-5.94.72-1.87,1.71-3.5,3-4.9s2.82-2.5,4.6-3.3c1.78-.81,3.75-1.21,5.92-1.21,2.46,0,4.59.44,6.38,1.32,1.8.88,3.29,2.06,4.49,3.55,1.19,1.48,2.07,3.19,2.64,5.12.57,1.93.85,3.94.85,6.03v.11c0,.41,0,.75-.03,1.05ZM513.8,44.49c-1.06-1.15-2.48-1.73-4.24-1.73s-3.18.57-4.27,1.71c-1.08,1.14-1.79,2.66-2.12,4.57h12.6c-.26-1.87-.92-3.38-1.98-4.54Z"/>
    <path class="st0" d="M547.48,44.79c-2.79,0-4.98.85-6.58,2.53-1.6,1.69-2.39,4.31-2.39,7.87v10.9h-8.37v-29.5h8.37v5.94c.84-2.02,2-3.63,3.47-4.84,1.47-1.21,3.45-1.76,5.94-1.65v8.75h-.44Z"/>
    <path class="st0" d="M553.31,33.34v-7.43h8.8v7.43h-8.8ZM553.53,66.09v-29.5h8.37v29.5h-8.37Z"/>
    <path class="st0" d="M588.42,66.09v-16.41c0-1.98-.44-3.47-1.32-4.48-.88-1-2.13-1.51-3.74-1.51s-2.89.5-3.82,1.51c-.94,1.01-1.4,2.5-1.4,4.48v16.41h-8.37v-29.5h8.37v4.22c.48-.63,1-1.23,1.57-1.8.57-.57,1.2-1.08,1.9-1.52s1.47-.8,2.31-1.05c.84-.26,1.8-.39,2.86-.39,3.19,0,5.66.97,7.4,2.92,1.74,1.94,2.61,4.62,2.61,8.03v19.1h-8.37Z"/>
    <path class="st0" d="M632.69,66.55c-.68,1.96-1.71,3.57-3.08,4.82-1.37,1.25-3.09,2.16-5.14,2.75-2.06.59-4.46.88-7.21.88-2.42,0-4.73-.27-6.93-.8-2.2-.53-4.24-1.29-6.11-2.28l2.86-6.27c1.54.84,3.09,1.5,4.65,1.98,1.56.48,3.33.72,5.31.72,2.86,0,4.98-.68,6.36-2.04,1.37-1.36,2.06-3.36,2.06-6v-1.43c-1.25,1.5-2.61,2.68-4.07,3.52-1.47.84-3.32,1.26-5.56,1.26-1.72,0-3.37-.3-4.95-.91-1.58-.61-2.97-1.49-4.18-2.67s-2.17-2.62-2.89-4.32c-.72-1.7-1.07-3.66-1.07-5.86v-.11c0-2.2.37-4.16,1.1-5.86.73-1.7,1.71-3.14,2.92-4.32,1.21-1.17,2.6-2.06,4.18-2.67,1.58-.61,3.21-.91,4.9-.91,2.28,0,4.15.42,5.61,1.26,1.47.85,2.77,1.89,3.91,3.14v-3.85h8.36v22.84c0,2.79-.34,5.16-1.02,7.13ZM625.45,49.8c0-.99-.18-1.91-.55-2.75s-.87-1.57-1.51-2.17c-.64-.61-1.4-1.07-2.28-1.4-.88-.33-1.84-.5-2.86-.5s-1.97.17-2.83.5c-.86.33-1.61.8-2.26,1.4-.64.61-1.15,1.33-1.51,2.17-.37.84-.55,1.76-.55,2.75v.11c0,2.06.68,3.71,2.04,4.95,1.36,1.25,3.06,1.87,5.12,1.87,1.03,0,1.98-.16,2.86-.49.88-.33,1.64-.8,2.28-1.4.64-.61,1.14-1.33,1.51-2.17.37-.84.55-1.76.55-2.75v-.11Z"/>
    <path class="st0" d="M658.47,66.09v-3.19c-1.03,1.14-2.26,2.05-3.69,2.73-1.43.68-3.17,1.02-5.23,1.02-1.39,0-2.71-.19-3.94-.58-1.23-.39-2.3-.96-3.22-1.73-.92-.77-1.64-1.72-2.17-2.84-.53-1.12-.8-2.41-.8-3.88v-.11c0-1.61.29-3.01.88-4.18.59-1.17,1.4-2.15,2.45-2.92,1.04-.77,2.29-1.35,3.74-1.73,1.45-.39,3.05-.58,4.82-.58,1.5,0,2.82.11,3.94.33,1.12.22,2.21.52,3.27.88v-.5c0-1.76-.53-3.1-1.59-4.02-1.06-.92-2.64-1.37-4.73-1.37-1.61,0-3.04.14-4.27.41-1.23.28-2.52.67-3.88,1.18l-2.09-6.39c1.61-.7,3.3-1.26,5.06-1.7,1.76-.44,3.89-.66,6.38-.66,4.59,0,7.92,1.12,10.02,3.36,2.09,2.24,3.14,5.36,3.14,9.36v17.11h-8.09ZM658.64,54.2c-.73-.33-1.55-.6-2.45-.8s-1.86-.3-2.89-.3c-1.8,0-3.21.35-4.24,1.04-1.03.7-1.54,1.71-1.54,3.03v.11c0,1.14.42,2.02,1.26,2.64.84.63,1.94.94,3.3.94,1.98,0,3.57-.48,4.76-1.43,1.19-.95,1.79-2.2,1.79-3.74v-1.49Z"/>
    <path class="st0" d="M674.16,66.09V25.91h8.37v40.17h-8.37Z"/>
    <path class="st8" d="M692.09,27.56h4.35v34.5h21.68v4.02h-26.03V27.56Z"/>
    <path class="st5" d="M731.14,41.57c-1.38.39-2.73.89-4.05,1.51l-1.26-3.47c1.58-.73,3.17-1.31,4.79-1.73s3.47-.63,5.56-.63c3.89,0,6.88.96,8.97,2.89,2.09,1.93,3.14,4.78,3.14,8.56v17.39h-4.07v-4.29c-.99,1.28-2.32,2.42-3.99,3.41-1.67.99-3.77,1.49-6.3,1.49-1.32,0-2.62-.18-3.88-.55-1.27-.37-2.4-.93-3.41-1.68-1.01-.75-1.82-1.68-2.42-2.78-.61-1.1-.91-2.4-.91-3.91s.29-2.84.88-3.99c.59-1.16,1.42-2.12,2.51-2.89,1.08-.77,2.37-1.36,3.85-1.76,1.48-.4,3.13-.61,4.92-.61s3.43.11,4.79.33c1.36.22,2.68.51,3.96.88v-.99c0-2.57-.74-4.5-2.23-5.81-1.49-1.3-3.57-1.95-6.25-1.95-1.69,0-3.22.19-4.6.58ZM729.78,53.26c-1.43,1.06-2.14,2.51-2.14,4.35,0,.92.19,1.73.58,2.42.38.7.91,1.29,1.56,1.79.66.5,1.42.87,2.28,1.13.86.26,1.76.39,2.72.39,1.31,0,2.55-.19,3.7-.58,1.15-.39,2.16-.92,3.02-1.6.86-.68,1.53-1.49,2.03-2.42s.74-1.97.74-3.11v-2.75c-1.06-.29-2.28-.57-3.65-.83-1.37-.26-2.93-.39-4.69-.39-2.67,0-4.72.53-6.14,1.6Z"/>
    <path class="st6" d="M784.88,58.11c-.77,1.84-1.79,3.38-3.05,4.65-1.27,1.26-2.72,2.24-4.35,2.91-1.63.68-3.31,1.02-5.04,1.02-1.32,0-2.53-.17-3.63-.5-1.1-.33-2.09-.77-2.97-1.32-.88-.55-1.68-1.19-2.39-1.93-.72-.73-1.35-1.5-1.9-2.31v5.45h-4.24V25.91h4.24v17.44c.59-.84,1.24-1.65,1.95-2.42.72-.77,1.51-1.44,2.39-2.01.88-.57,1.86-1.03,2.94-1.38,1.08-.35,2.28-.52,3.6-.52,1.69,0,3.35.33,4.98.99,1.63.66,3.09,1.62,4.38,2.89,1.28,1.26,2.31,2.82,3.08,4.65.77,1.83,1.16,3.93,1.16,6.27s-.39,4.44-1.16,6.27ZM780.89,47.34c-.53-1.35-1.26-2.51-2.17-3.48-.92-.97-1.98-1.71-3.19-2.22-1.21-.51-2.5-.77-3.85-.77s-2.6.26-3.83.79c-1.23.53-2.33,1.27-3.3,2.22-.97.95-1.74,2.1-2.31,3.45-.57,1.35-.85,2.85-.85,4.49s.28,3.15.85,4.52c.57,1.37,1.34,2.53,2.31,3.48.97.95,2.07,1.69,3.3,2.22,1.23.53,2.51.79,3.83.79s2.65-.25,3.88-.74c1.23-.49,2.29-1.2,3.19-2.14s1.61-2.08,2.15-3.45c.53-1.37.8-2.91.8-4.63s-.27-3.19-.8-4.55Z"/>
    <g>
      <path class="st0" d="M459.48,88.37h1.19v9.47h5.95v1.1h-7.15v-10.58Z"/>
      <path class="st0" d="M482.91,98.94h-1.28l-1.24-2.79h-5.76l-1.25,2.79h-1.22l4.82-10.65h1.12l4.82,10.65ZM477.52,89.7l-2.42,5.39h4.82l-2.4-5.39Z"/>
      <path class="st0" d="M495.14,88.56c.42.13.78.3,1.09.53.3.23.53.5.69.83.16.33.24.69.24,1.09,0,.35-.05.66-.14.92s-.22.49-.38.69c-.16.2-.34.37-.53.51-.2.14-.4.25-.61.34.31.09.61.21.88.36.28.15.52.32.72.52.2.2.36.44.48.72.12.28.18.6.18.97,0,.45-.09.86-.27,1.22-.18.36-.44.67-.78.91-.34.25-.74.44-1.21.57-.47.13-1,.2-1.57.2h-4.69v-10.58h4.49c.52,0,.99.06,1.42.19ZM495.29,92.59c.45-.32.68-.8.68-1.43,0-.54-.2-.96-.6-1.27-.4-.31-.98-.47-1.73-.47h-3.21v3.66h3.12c.71,0,1.3-.16,1.75-.49ZM495.86,97.38c.46-.33.69-.8.69-1.41s-.24-1.04-.71-1.36-1.17-.48-2.09-.48h-3.33v3.75h3.54c.8,0,1.44-.17,1.9-.5Z"/>
      <path class="st0" d="M514.29,95.73c-.26.66-.63,1.24-1.1,1.74-.47.5-1.04.9-1.71,1.2-.66.3-1.4.45-2.21.45s-1.54-.15-2.2-.44c-.66-.29-1.23-.69-1.7-1.18-.47-.5-.84-1.08-1.1-1.74s-.39-1.36-.39-2.09.13-1.43.39-2.09c.26-.66.63-1.24,1.1-1.75.47-.5,1.04-.9,1.71-1.2.66-.3,1.4-.45,2.21-.45s1.54.15,2.2.44c.66.29,1.23.69,1.7,1.19.47.5.84,1.08,1.1,1.74s.39,1.36.39,2.09-.13,1.43-.39,2.09ZM513.13,91.96c-.21-.53-.5-1-.87-1.39-.37-.39-.81-.7-1.32-.94-.51-.23-1.07-.35-1.67-.35s-1.16.11-1.67.34c-.51.23-.94.54-1.31.93-.36.39-.65.85-.85,1.38-.21.53-.31,1.09-.31,1.7s.1,1.17.31,1.71c.21.53.5,1,.87,1.39.37.39.81.71,1.32.94.51.23,1.06.35,1.67.35s1.16-.11,1.67-.34c.51-.23.94-.54,1.31-.93.36-.39.65-.85.85-1.38.21-.53.31-1.09.31-1.7s-.1-1.17-.31-1.71Z"/>
      <path class="st0" d="M528.72,98.94l-3.07-4.11h-3.02v4.11h-1.19v-10.58h4.55c.58,0,1.11.08,1.58.23.47.15.87.37,1.2.64.33.28.59.61.77,1,.18.39.27.82.27,1.29,0,.44-.07.84-.21,1.19-.14.35-.34.65-.6.91-.26.26-.56.47-.91.64-.35.17-.74.29-1.15.36l3.25,4.32h-1.47ZM527.9,90.02c-.47-.37-1.14-.55-2-.55h-3.27v4.3h3.26c.39,0,.76-.05,1.09-.15.33-.1.62-.24.86-.43.24-.19.43-.42.57-.69.14-.27.2-.58.2-.93,0-.67-.24-1.18-.71-1.55Z"/>
      <path class="st0" d="M546.44,98.94h-1.28l-1.24-2.79h-5.76l-1.25,2.79h-1.22l4.82-10.65h1.12l4.82,10.65ZM541.04,89.7l-2.42,5.39h4.82l-2.4-5.39Z"/>
      <path class="st0" d="M555.38,98.94h-1.19v-9.47h-3.55v-1.1h8.29v1.1h-3.55v9.47Z"/>
      <path class="st0" d="M575.33,95.73c-.26.66-.63,1.24-1.1,1.74-.47.5-1.04.9-1.71,1.2-.66.3-1.4.45-2.21.45s-1.54-.15-2.2-.44c-.66-.29-1.23-.69-1.7-1.18-.47-.5-.84-1.08-1.1-1.74s-.39-1.36-.39-2.09.13-1.43.39-2.09c.26-.66.63-1.24,1.1-1.75.47-.5,1.04-.9,1.71-1.2.66-.3,1.4-.45,2.21-.45s1.54.15,2.2.44c.66.29,1.23.69,1.7,1.19.47.5.84,1.08,1.1,1.74s.39,1.36.39,2.09-.13,1.43-.39,2.09ZM574.18,91.96c-.21-.53-.5-1-.87-1.39-.37-.39-.81-.7-1.32-.94-.51-.23-1.07-.35-1.67-.35s-1.16.11-1.67.34c-.51.23-.94.54-1.31.93-.36.39-.65.85-.85,1.38-.21.53-.31,1.09-.31,1.7s.1,1.17.31,1.71c.21.53.5,1,.87,1.39.37.39.81.71,1.32.94.51.23,1.06.35,1.67.35s1.16-.11,1.67-.34c.51-.23.94-.54,1.31-.93.36-.39.65-.85.85-1.38.21-.53.31-1.09.31-1.7s-.1-1.17-.31-1.71ZM569.94,87.43l1.44-2.19,1.21.56-1.71,1.63h-.94Z"/>
      <path class="st0" d="M589.76,98.94l-3.07-4.11h-3.02v4.11h-1.19v-10.58h4.55c.58,0,1.11.08,1.58.23.47.15.87.37,1.2.64.33.28.59.61.77,1,.18.39.27.82.27,1.29,0,.44-.07.84-.21,1.19-.14.35-.34.65-.6.91-.26.26-.56.47-.91.64-.35.17-.74.29-1.15.36l3.25,4.32h-1.47ZM588.94,90.02c-.47-.37-1.14-.55-2-.55h-3.27v4.3h3.26c.39,0,.76-.05,1.09-.15.33-.1.62-.24.86-.43.24-.19.43-.42.57-.69.14-.27.2-.58.2-.93,0-.67-.24-1.18-.71-1.55Z"/>
      <path class="st0" d="M598.93,88.37v10.58h-1.19v-10.58h1.19Z"/>
      <path class="st0" d="M616.18,95.73c-.26.66-.63,1.24-1.1,1.74-.47.5-1.04.9-1.71,1.2-.66.3-1.4.45-2.21.45s-1.54-.15-2.2-.44c-.66-.29-1.23-.69-1.7-1.18-.47-.5-.84-1.08-1.1-1.74s-.39-1.36-.39-2.09.13-1.43.39-2.09c.26-.66.63-1.24,1.1-1.75.47-.5,1.04-.9,1.71-1.2.66-.3,1.4-.45,2.21-.45s1.54.15,2.2.44c.66.29,1.23.69,1.7,1.19.47.5.84,1.08,1.1,1.74s.39,1.36.39,2.09-.13,1.43-.39,2.09ZM615.03,91.96c-.21-.53-.5-1-.87-1.39-.37-.39-.81-.7-1.32-.94-.51-.23-1.07-.35-1.67-.35s-1.16.11-1.67.34c-.51.23-.94.54-1.31.93-.36.39-.65.85-.85,1.38-.21.53-.31,1.09-.31,1.7s.1,1.17.31,1.71c.21.53.5,1,.87,1.39.37.39.81.71,1.32.94.51.23,1.06.35,1.67.35s1.16-.11,1.67-.34c.51-.23.94-.54,1.31-.93.36-.39.65-.85.85-1.38.21-.53.31-1.09.31-1.7s-.1-1.17-.31-1.71Z"/>
      <path class="st0" d="M640.97,95.73c-.27.65-.66,1.21-1.16,1.68-.5.47-1.09.85-1.78,1.12-.69.27-1.45.41-2.27.41h-3.67v-10.58h3.67c.83,0,1.58.13,2.27.4.69.27,1.28.64,1.78,1.11.5.47.88,1.03,1.16,1.68s.41,1.34.41,2.08-.14,1.44-.41,2.09ZM639.83,92.02c-.21-.51-.5-.96-.88-1.34-.38-.38-.84-.67-1.38-.89-.54-.22-1.15-.32-1.81-.32h-2.48v8.37h2.48c.66,0,1.27-.11,1.81-.32.54-.21,1-.51,1.38-.88s.67-.82.88-1.32c.21-.5.31-1.05.31-1.65s-.1-1.13-.31-1.65Z"/>
      <path class="st0" d="M655.78,89.45h-6.45v3.61h5.77v1.09h-5.77v3.7h6.53v1.09h-7.72v-10.58h7.64v1.09Z"/>
      <path class="st0" d="M672.55,88.37v10.58h-1.19v-10.58h1.19Z"/>
      <path class="st0" d="M687.65,88.37h1.16v10.58h-.95l-6.83-8.67v8.67h-1.16v-10.58h1.12l6.66,8.47v-8.47Z"/>
      <path class="st0" d="M705.96,95.73c-.26.66-.63,1.24-1.1,1.74-.47.5-1.04.9-1.71,1.2-.66.3-1.4.45-2.21.45s-1.54-.15-2.2-.44c-.66-.29-1.23-.69-1.7-1.18-.47-.5-.84-1.08-1.1-1.74s-.39-1.36-.39-2.09.13-1.43.39-2.09c.26-.66.63-1.24,1.1-1.75.47-.5,1.04-.9,1.71-1.2.66-.3,1.4-.45,2.21-.45s1.54.15,2.2.44c.66.29,1.23.69,1.7,1.19.47.5.84,1.08,1.1,1.74s.39,1.36.39,2.09-.13,1.43-.39,2.09ZM704.81,91.96c-.21-.53-.5-1-.87-1.39-.37-.39-.81-.7-1.32-.94-.51-.23-1.07-.35-1.67-.35s-1.16.11-1.67.34c-.51.23-.94.54-1.31.93-.36.39-.65.85-.85,1.38-.21.53-.31,1.09-.31,1.7s.1,1.17.31,1.71c.21.53.5,1,.87,1.39.37.39.81.71,1.32.94.51.23,1.06.35,1.67.35s1.16-.11,1.67-.34c.51-.23.94-.54,1.31-.93.36-.39.65-.85.85-1.38.21-.53.31-1.09.31-1.7s-.1-1.17-.31-1.71Z"/>
      <path class="st0" d="M720.45,88.37h1.28l-4.55,10.65h-1.06l-4.55-10.65h1.33l3.76,9.11,3.78-9.11Z"/>
      <path class="st0" d="M736.39,98.94h-1.28l-1.24-2.79h-5.76l-1.25,2.79h-1.22l4.82-10.65h1.12l4.82,10.65ZM730.99,89.7l-2.42,5.39h4.82l-2.4-5.39Z"/>
      <path class="st0" d="M744.97,98.48c-.56-.31-1.05-.7-1.45-1.18-.4-.48-.72-1.03-.94-1.65-.23-.62-.34-1.28-.34-1.99,0-.76.13-1.47.4-2.13.27-.67.64-1.25,1.11-1.75.47-.5,1.04-.89,1.69-1.18.65-.29,1.37-.43,2.15-.43.48,0,.92.04,1.31.12.39.08.75.19,1.08.34s.64.32.92.53c.28.21.55.44.82.69l-.82.88c-.45-.42-.94-.77-1.46-1.04-.52-.27-1.14-.41-1.87-.41-.58,0-1.13.11-1.62.33-.5.22-.93.53-1.3.92-.37.39-.65.85-.86,1.38-.21.53-.31,1.1-.31,1.71s.1,1.19.31,1.72c.21.53.49,1,.86,1.39.37.39.8.7,1.3.93s1.04.34,1.62.34c.73,0,1.35-.13,1.87-.4.52-.27,1.04-.64,1.54-1.13l.79.77c-.26.27-.53.52-.82.73-.28.22-.58.41-.91.57-.32.16-.67.29-1.04.38-.37.1-.78.15-1.22.17l-1,2.16-1.13-.51,1.16-1.69c-.66-.09-1.28-.29-1.84-.6Z"/>
      <path class="st0" d="M767.93,98.94h-1.28l-1.24-2.79h-5.76l-1.25,2.79h-1.22l4.82-10.65h1.12l4.82,10.65ZM764.47,87.07c-.22.24-.51.36-.88.36-.17,0-.35-.03-.53-.09-.18-.06-.36-.13-.54-.2-.18-.07-.35-.14-.51-.21-.16-.06-.31-.1-.44-.1-.2,0-.36.05-.46.16-.11.11-.21.3-.32.56l-.71-.2c.15-.57.34-.98.56-1.22.22-.24.51-.36.88-.36.17,0,.35.03.53.1.18.06.36.13.54.21.18.07.35.14.51.2s.31.09.44.09c.2,0,.36-.05.46-.16.11-.11.21-.3.32-.56l.71.2c-.15.57-.34.98-.56,1.22ZM762.54,89.7l-2.42,5.39h4.82l-2.4-5.39Z"/>
      <path class="st0" d="M784.17,95.73c-.26.66-.63,1.24-1.1,1.74-.47.5-1.04.9-1.71,1.2-.66.3-1.4.45-2.21.45s-1.54-.15-2.2-.44c-.66-.29-1.23-.69-1.7-1.18-.47-.5-.84-1.08-1.1-1.74s-.39-1.36-.39-2.09.13-1.43.39-2.09c.26-.66.63-1.24,1.1-1.75.47-.5,1.04-.9,1.71-1.2.66-.3,1.4-.45,2.21-.45s1.54.15,2.2.44c.66.29,1.23.69,1.7,1.19.47.5.84,1.08,1.1,1.74s.39,1.36.39,2.09-.13,1.43-.39,2.09ZM783.01,91.96c-.21-.53-.5-1-.87-1.39-.37-.39-.81-.7-1.32-.94-.51-.23-1.07-.35-1.67-.35s-1.16.11-1.67.34c-.51.23-.94.54-1.31.93-.36.39-.65.85-.85,1.38-.21.53-.31,1.09-.31,1.7s.1,1.17.31,1.71c.21.53.5,1,.87,1.39.37.39.81.71,1.32.94.51.23,1.06.35,1.67.35s1.16-.11,1.67-.34c.51-.23.94-.54,1.31-.93.36-.39.65-.85.85-1.38.21-.53.31-1.09.31-1.7s-.1-1.17-.31-1.71Z"/>
    </g>
  </g>
  <use width="236" height="63.97" transform="translate(14.97 18.98) scale(1.2)" xlink:href="#MPAC-H"/>
  <rect class="st3" x="342.49" y="14.54" width="3" height="85.92"/>
</svg>